<?xml version="1.0" encoding="UTF-8" standalone="no"?>
<svg width="145.697mm" height="129.822mm"
 xmlns="http://www.w3.org/2000/svg" xmlns:xlink="http://www.w3.org/1999/xlink"  version="1.2" baseProfile="tiny">
<title>Qt SVG Document</title>
<desc>Generated with Qt</desc>
<defs>
</defs>
<g fill="none" stroke="black" stroke-width="1" fill-rule="evenodd" stroke-linecap="square" stroke-linejoin="bevel" >

<g fill="none" stroke="#000000" stroke-opacity="1" stroke-width="1" stroke-linecap="square" stroke-linejoin="bevel" transform="matrix(1,0,0,1,0,0)"
font-family="Ubuntu" font-size="11" font-weight="400" font-style="normal" 
>
</g>

<g fill="none" stroke="#000000" stroke-opacity="1" stroke-width="1" stroke-linecap="square" stroke-linejoin="bevel" transform="matrix(1,0,0,1,0,0)"
font-family="Ubuntu" font-size="11" font-weight="400" font-style="normal" 
>
</g>

<g fill="none" stroke="#000000" stroke-opacity="1" stroke-width="1" stroke-linecap="square" stroke-linejoin="bevel" transform="matrix(2,0,0,2,0,383)"
font-family="Ubuntu" font-size="11" font-weight="400" font-style="normal" 
>
</g>

<g fill="#ffffff" fill-opacity="1" stroke="none" transform="matrix(2,0,0,2,0,383)"
font-family="Ubuntu" font-size="11" font-weight="400" font-style="normal" 
>
<rect x="0" y="-191.5" width="206.5" height="184"/>
</g>

<g fill="none" stroke="#000000" stroke-opacity="1" stroke-width="1" stroke-linecap="square" stroke-linejoin="bevel" transform="matrix(2,0,0,2,0,383)"
font-family="Ubuntu" font-size="11" font-weight="400" font-style="normal" 
>
</g>

<g fill="none" stroke="#000000" stroke-opacity="1" stroke-width="1" stroke-linecap="square" stroke-linejoin="bevel" transform="matrix(2,0,0,2,0,383)"
font-family="Ubuntu" font-size="11" font-weight="400" font-style="normal" 
>
</g>

<g fill="none" stroke="#000000" stroke-opacity="1" stroke-width="1" stroke-linecap="square" stroke-linejoin="bevel" transform="matrix(2,0,0,2,0,383)"
font-family="Ubuntu" font-size="11" font-weight="400" font-style="normal" 
>
</g>

<g fill="none" stroke="#000000" stroke-opacity="1" stroke-width="1" stroke-linecap="square" stroke-linejoin="bevel" transform="matrix(2,0,0,2,0,383)"
font-family="Ubuntu" font-size="11" font-weight="400" font-style="normal" 
>
</g>

<g fill="none" stroke="#000000" stroke-opacity="1" stroke-width="1" stroke-linecap="square" stroke-linejoin="round" transform="matrix(2,0,0,2,0,383)"
font-family="Ubuntu" font-size="11" font-weight="400" font-style="normal" 
>
<rect x="62" y="-191" width="144" height="183"/>
</g>

<g fill="none" stroke="#000000" stroke-opacity="1" stroke-width="1" stroke-linecap="square" stroke-linejoin="bevel" transform="matrix(2,0,0,2,0,383)"
font-family="Ubuntu" font-size="11" font-weight="400" font-style="normal" 
>
</g>

<g fill="none" stroke="#000000" stroke-opacity="1" stroke-width="1" stroke-linecap="square" stroke-linejoin="bevel" transform="matrix(2,0,0,2,227.391,10)"
font-family="Ubuntu" font-size="11" font-weight="400" font-style="normal" 
>
</g>

<g fill="none" stroke="#000000" stroke-opacity="1" stroke-width="1" stroke-linecap="square" stroke-linejoin="bevel" transform="matrix(2,0,0,2,227.391,10)"
font-family="sans" font-size="11" font-weight="100" font-style="normal" 
>
</g>

<g fill="#000000" fill-opacity="1" stroke="#000000" stroke-opacity="1" stroke-width="1" stroke-linecap="square" stroke-linejoin="round" transform="matrix(2,0,0,2,227.391,10)"
font-family="sans" font-size="11" font-weight="100" font-style="normal" 
>
<path vector-effect="none" fill-rule="nonzero" d="M2.96875,2.98438 L3.53125,2.98438 L0.734375,12.0156 L0.171875,12.0156 L2.96875,2.98438 M5.46875,3.28125 L5.46875,4.98438 L7.5,4.98438 L7.5,5.40625 L5.46875,5.40625 L5.46875,9.01563 C5.46875,9.47396 5.52604,9.79688 5.64063,9.98438 C5.89063,10.3802 6.25,10.5781 6.71875,10.5781 L7.5,10.5781 L7.5,11 L6.73438,11 C6.24479,11 5.82813,10.8568 5.48438,10.5703 C5.14063,10.2839 4.96875,9.76563 4.96875,9.01563 L4.96875,5.40625 L4.25,5.40625 L4.25,4.98438 L4.96875,4.98438 L4.96875,3.28125 L5.46875,3.28125 M9.20313,8.60938 L9.20313,4.98438 L9.6875,4.98438 L9.6875,8.57813 C9.6875,9.35938 9.8125,9.90885 10.0625,10.2266 C10.3125,10.5443 10.6823,10.7031 11.1719,10.7031 C11.7448,10.7031 12.2344,10.5313 12.6406,10.1875 C13.0469,9.84375 13.25,9.24479 13.25,8.39063 L13.25,4.98438 L13.7344,4.98438 L13.7344,11 L13.25,11 L13.25,9.875 C13.0729,10.2396 12.8385,10.5156 12.5469,10.7031 C12.1302,10.9948 11.6667,11.1406 11.1563,11.1406 C10.5625,11.1406 10.0885,10.9375 9.73438,10.5313 C9.38021,10.1354 9.20313,9.49479 9.20313,8.60938 M19.5,5.40625 C19.4167,5.36458 19.3073,5.33333 19.1719,5.3125 C19.0469,5.29167 18.8958,5.28125 18.7188,5.28125 C18.1042,5.28125 17.599,5.50521 17.2031,5.95313 C16.8802,6.31771 16.7188,6.94271 16.7188,7.82813 L16.7188,11 L16.2344,11 L16.2344,4.98438 L16.7188,4.98438 L16.7188,6.10938 C16.8854,5.78646 17.1146,5.51563 17.4063,5.29688 C17.8021,4.99479 18.2708,4.84375 18.8125,4.84375 C18.9583,4.84375 19.0833,4.84896 19.1875,4.85938 C19.2917,4.85938 19.3958,4.86979 19.5,4.89063 L19.5,5.40625 M21.2656,3.28125 L21.2656,4.98438 L23.2969,4.98438 L23.2969,5.40625 L21.2656,5.40625 L21.2656,9.01563 C21.2656,9.47396 21.3229,9.79688 21.4375,9.98438 C21.6875,10.3802 22.0469,10.5781 22.5156,10.5781 L23.2969,10.5781 L23.2969,11 L22.5313,11 C22.0417,11 21.625,10.8568 21.2813,10.5703 C20.9375,10.2839 20.7656,9.76563 20.7656,9.01563 L20.7656,5.40625 L20.0469,5.40625 L20.0469,4.98438 L20.7656,4.98438 L20.7656,3.28125 L21.2656,3.28125 M25.0625,2.64063 L25.5469,2.64063 L25.5469,11 L25.0625,11 L25.0625,2.64063 M32.7969,7.75 L32.7969,8.0625 L28.2344,8.0625 C28.2344,9.02083 28.4219,9.69792 28.7969,10.0938 C29.2135,10.5208 29.8281,10.7344 30.6406,10.7344 C30.8594,10.7344 31.1458,10.6875 31.5,10.5938 C31.8542,10.5 32.2083,10.3594 32.5625,10.1719 L32.5625,10.6875 C32.2083,10.8438 31.8464,10.9609 31.4766,11.0391 C31.1068,11.1172 30.8125,11.1563 30.5938,11.1563 C29.6667,11.1563 28.9688,10.9063 28.5,10.4063 C27.9896,9.875 27.7344,9.09375 27.7344,8.0625 C27.7344,6.98958 27.9635,6.1875 28.4219,5.65625 C28.901,5.11458 29.5677,4.84375 30.4219,4.84375 C31.2031,4.84375 31.7969,5.10417 32.2031,5.625 C32.599,6.16667 32.7969,6.875 32.7969,7.75 M32.2969,7.64063 C32.2969,6.79688 32.1042,6.18229 31.7188,5.79688 C31.4063,5.45313 30.974,5.28125 30.4219,5.28125 C29.8281,5.28125 29.3281,5.45833 28.9219,5.8125 C28.5469,6.14583 28.3229,6.75521 28.25,7.64063 L32.2969,7.64063 M35.2656,10.5625 L37.0313,10.5625 L37.0313,3.46875 L34.8281,4.35938 L34.8281,3.85938 L37.0156,2.98438 L37.5625,2.98438 L37.5625,10.5625 L39.3438,10.5625 L39.3438,11 L35.2656,11 L35.2656,10.5625"/>
</g>

<g fill="none" stroke="#000000" stroke-opacity="1" stroke-width="1" stroke-linecap="square" stroke-linejoin="bevel" transform="matrix(2,0,0,2,227.391,10)"
font-family="sans" font-size="11" font-weight="100" font-style="normal" 
>
</g>

<g fill="none" stroke="#000000" stroke-opacity="1" stroke-width="1" stroke-linecap="square" stroke-linejoin="bevel" transform="matrix(2,0,0,2,227.391,10)"
font-family="Ubuntu" font-size="11" font-weight="400" font-style="normal" 
>
</g>

<g fill="none" stroke="#000000" stroke-opacity="1" stroke-width="1" stroke-linecap="square" stroke-linejoin="bevel" transform="matrix(2,0,0,2,0,383)"
font-family="Ubuntu" font-size="11" font-weight="400" font-style="normal" 
>
</g>

<g fill="none" stroke="#000000" stroke-opacity="1" stroke-width="1" stroke-linecap="square" stroke-linejoin="bevel" transform="matrix(2,0,0,2,0,383)"
font-family="Ubuntu" font-size="11" font-weight="400" font-style="normal" 
>
</g>

<g fill="none" stroke="#000000" stroke-opacity="1" stroke-width="1" stroke-linecap="square" stroke-linejoin="bevel" transform="matrix(2,0,0,2,0,383)"
font-family="Ubuntu" font-size="11" font-weight="400" font-style="normal" 
>
</g>

<g fill="none" stroke="#000000" stroke-opacity="1" stroke-width="1" stroke-linecap="square" stroke-linejoin="round" transform="matrix(2,0,0,2,0,383)"
font-family="Ubuntu" font-size="11" font-weight="400" font-style="normal" 
>
<rect x="81.0004" y="-51.5" width="105.999" height="35"/>
</g>

<g fill="none" stroke="#000000" stroke-opacity="1" stroke-width="1" stroke-linecap="square" stroke-linejoin="bevel" transform="matrix(2,0,0,2,0,383)"
font-family="Ubuntu" font-size="11" font-weight="400" font-style="normal" 
>
</g>

<g fill="none" stroke="#000000" stroke-opacity="1" stroke-width="1" stroke-linecap="square" stroke-linejoin="bevel" transform="matrix(2,0,0,2,178.156,301)"
font-family="Ubuntu" font-size="11" font-weight="400" font-style="normal" 
>
</g>

<g fill="none" stroke="#000000" stroke-opacity="1" stroke-width="1" stroke-linecap="square" stroke-linejoin="bevel" transform="matrix(2,0,0,2,178.156,301)"
font-family="sans" font-size="11" font-weight="100" font-style="normal" 
>
</g>

<g fill="#000000" fill-opacity="1" stroke="#000000" stroke-opacity="1" stroke-width="1" stroke-linecap="square" stroke-linejoin="round" transform="matrix(2,0,0,2,178.156,301)"
font-family="sans" font-size="11" font-weight="100" font-style="normal" 
>
<path vector-effect="none" fill-rule="nonzero" d="M2.96875,2.98438 L3.53125,2.98438 L0.734375,12.0156 L0.171875,12.0156 L2.96875,2.98438 M5.46875,3.28125 L5.46875,4.98438 L7.5,4.98438 L7.5,5.40625 L5.46875,5.40625 L5.46875,9.01563 C5.46875,9.47396 5.52604,9.79688 5.64063,9.98438 C5.89063,10.3802 6.25,10.5781 6.71875,10.5781 L7.5,10.5781 L7.5,11 L6.73438,11 C6.24479,11 5.82813,10.8568 5.48438,10.5703 C5.14063,10.2839 4.96875,9.76563 4.96875,9.01563 L4.96875,5.40625 L4.25,5.40625 L4.25,4.98438 L4.96875,4.98438 L4.96875,3.28125 L5.46875,3.28125 M9.20313,8.60938 L9.20313,4.98438 L9.6875,4.98438 L9.6875,8.57813 C9.6875,9.35938 9.8125,9.90885 10.0625,10.2266 C10.3125,10.5443 10.6823,10.7031 11.1719,10.7031 C11.7448,10.7031 12.2344,10.5313 12.6406,10.1875 C13.0469,9.84375 13.25,9.24479 13.25,8.39063 L13.25,4.98438 L13.7344,4.98438 L13.7344,11 L13.25,11 L13.25,9.875 C13.0729,10.2396 12.8385,10.5156 12.5469,10.7031 C12.1302,10.9948 11.6667,11.1406 11.1563,11.1406 C10.5625,11.1406 10.0885,10.9375 9.73438,10.5313 C9.38021,10.1354 9.20313,9.49479 9.20313,8.60938 M19.5,5.40625 C19.4167,5.36458 19.3073,5.33333 19.1719,5.3125 C19.0469,5.29167 18.8958,5.28125 18.7188,5.28125 C18.1042,5.28125 17.599,5.50521 17.2031,5.95313 C16.8802,6.31771 16.7188,6.94271 16.7188,7.82813 L16.7188,11 L16.2344,11 L16.2344,4.98438 L16.7188,4.98438 L16.7188,6.10938 C16.8854,5.78646 17.1146,5.51563 17.4063,5.29688 C17.8021,4.99479 18.2708,4.84375 18.8125,4.84375 C18.9583,4.84375 19.0833,4.84896 19.1875,4.85938 C19.2917,4.85938 19.3958,4.86979 19.5,4.89063 L19.5,5.40625 M21.2656,3.28125 L21.2656,4.98438 L23.2969,4.98438 L23.2969,5.40625 L21.2656,5.40625 L21.2656,9.01563 C21.2656,9.47396 21.3229,9.79688 21.4375,9.98438 C21.6875,10.3802 22.0469,10.5781 22.5156,10.5781 L23.2969,10.5781 L23.2969,11 L22.5313,11 C22.0417,11 21.625,10.8568 21.2813,10.5703 C20.9375,10.2839 20.7656,9.76563 20.7656,9.01563 L20.7656,5.40625 L20.0469,5.40625 L20.0469,4.98438 L20.7656,4.98438 L20.7656,3.28125 L21.2656,3.28125 M25.0625,2.64063 L25.5469,2.64063 L25.5469,11 L25.0625,11 L25.0625,2.64063 M32.7969,7.75 L32.7969,8.0625 L28.2344,8.0625 C28.2344,9.02083 28.4219,9.69792 28.7969,10.0938 C29.2135,10.5208 29.8281,10.7344 30.6406,10.7344 C30.8594,10.7344 31.1458,10.6875 31.5,10.5938 C31.8542,10.5 32.2083,10.3594 32.5625,10.1719 L32.5625,10.6875 C32.2083,10.8438 31.8464,10.9609 31.4766,11.0391 C31.1068,11.1172 30.8125,11.1563 30.5938,11.1563 C29.6667,11.1563 28.9688,10.9063 28.5,10.4063 C27.9896,9.875 27.7344,9.09375 27.7344,8.0625 C27.7344,6.98958 27.9635,6.1875 28.4219,5.65625 C28.901,5.11458 29.5677,4.84375 30.4219,4.84375 C31.2031,4.84375 31.7969,5.10417 32.2031,5.625 C32.599,6.16667 32.7969,6.875 32.7969,7.75 M32.2969,7.64063 C32.2969,6.79688 32.1042,6.18229 31.7188,5.79688 C31.4063,5.45313 30.974,5.28125 30.4219,5.28125 C29.8281,5.28125 29.3281,5.45833 28.9219,5.8125 C28.5469,6.14583 28.3229,6.75521 28.25,7.64063 L32.2969,7.64063 M35.2656,10.5625 L37.0313,10.5625 L37.0313,3.46875 L34.8281,4.35938 L34.8281,3.85938 L37.0156,2.98438 L37.5625,2.98438 L37.5625,10.5625 L39.3438,10.5625 L39.3438,11 L35.2656,11 L35.2656,10.5625 M43.5781,2.98438 L44.1406,2.98438 L41.3438,12.0156 L40.7813,12.0156 L43.5781,2.98438 M49.6719,5.28125 L49.6719,5.79688 C49.3802,5.61979 49.1354,5.5 48.9375,5.4375 C48.6042,5.33333 48.2865,5.28125 47.9844,5.28125 C47.1198,5.28125 46.5,5.5026 46.125,5.94531 C45.75,6.38802 45.5625,7.07292 45.5625,8 C45.5625,8.9375 45.75,9.6276 46.125,10.0703 C46.5,10.513 47.1198,10.7344 47.9844,10.7344 C48.276,10.7344 48.5573,10.6927 48.8281,10.6094 C49.1198,10.5365 49.401,10.4219 49.6719,10.2656 L49.6719,10.7656 C49.401,10.901 49.1198,11 48.8281,11.0625 C48.526,11.125 48.2292,11.1563 47.9375,11.1563 C47.0625,11.1563 46.3646,10.9167 45.8438,10.4375 C45.3229,9.95833 45.0625,9.14323 45.0625,7.99219 C45.0625,6.84115 45.3229,6.02604 45.8438,5.54688 C46.3646,5.07813 47.0625,4.84375 47.9375,4.84375 C48.2292,4.84375 48.5365,4.88542 48.8594,4.96875 C49.1823,5.04167 49.4531,5.14583 49.6719,5.28125 M55.9375,6.29688 C56.125,5.80729 56.4167,5.44271 56.8125,5.20313 C57.1979,4.96354 57.651,4.84375 58.1719,4.84375 C58.6927,4.84375 59.1094,5.02604 59.4219,5.39063 C59.7448,5.75521 59.9063,6.41667 59.9063,7.375 L59.9063,11 L59.4219,11 L59.4219,7.40625 C59.4219,6.57292 59.3073,6.01042 59.0781,5.71875 C58.849,5.42708 58.5417,5.28125 58.1563,5.28125 C57.6042,5.28125 57.1198,5.44792 56.7031,5.78125 C56.2344,6.15625 56,6.76042 56,7.59375 L56,11 L55.5156,11 L55.5156,7.40625 C55.5156,6.60417 55.4036,6.04948 55.1797,5.74219 C54.9557,5.4349 54.6458,5.28125 54.25,5.28125 C53.6979,5.28125 53.2135,5.45313 52.7969,5.79688 C52.3281,6.16146 52.0938,6.76042 52.0938,7.59375 L52.0938,11 L51.6094,11 L51.6094,4.98438 L52.0938,4.98438 L52.0938,6.10938 C52.2708,5.71354 52.5469,5.40104 52.9219,5.17188 C53.2865,4.95313 53.7396,4.84375 54.2813,4.84375 C54.6354,4.84375 54.974,4.95833 55.2969,5.1875 C55.5469,5.375 55.7604,5.74479 55.9375,6.29688 M66.3125,6.35938 L66.3125,2.64063 L66.7813,2.64063 L66.7813,11 L66.3125,11 L66.3125,9.64063 C66.0833,10.1615 65.8333,10.5156 65.5625,10.7031 C65.1667,11.0052 64.7865,11.1563 64.4219,11.1563 C63.7135,11.1563 63.1224,10.8672 62.6484,10.2891 C62.1745,9.71094 61.9375,8.94792 61.9375,8 C61.9375,7.05208 62.1745,6.28906 62.6484,5.71094 C63.1224,5.13281 63.7135,4.84375 64.4219,4.84375 C64.7865,4.84375 65.1667,4.98958 65.5625,5.28125 C65.8333,5.47917 66.0833,5.83854 66.3125,6.35938 M63.0781,5.90625 C62.6615,6.32292 62.4531,7.02083 62.4531,8 C62.4531,8.97917 62.6615,9.67708 63.0781,10.0938 C63.4948,10.5104 63.9323,10.7188 64.3906,10.7188 C64.8385,10.7188 65.2708,10.5104 65.6875,10.0938 C66.0938,9.67708 66.2969,8.97917 66.2969,8 C66.2969,7.02083 66.0938,6.32292 65.6875,5.90625 C65.2708,5.48958 64.8385,5.28125 64.3906,5.28125 C63.9323,5.28125 63.4948,5.48958 63.0781,5.90625 M73.6406,13.1719 L73.6406,13.5938 L67.9219,13.5938 L67.9219,13.1719 L73.6406,13.1719 M74.2344,4.98438 L74.75,4.98438 L76.7813,10.4531 L78.8281,4.98438 L79.3438,4.98438 L77.1094,11 L76.4688,11 L74.2344,4.98438 M85.9688,7.75 L85.9688,8.0625 L81.4063,8.0625 C81.4063,9.02083 81.5938,9.69792 81.9688,10.0938 C82.3854,10.5208 83,10.7344 83.8125,10.7344 C84.0313,10.7344 84.3177,10.6875 84.6719,10.5938 C85.026,10.5 85.3802,10.3594 85.7344,10.1719 L85.7344,10.6875 C85.3802,10.8438 85.0182,10.9609 84.6484,11.0391 C84.2786,11.1172 83.9844,11.1563 83.7656,11.1563 C82.8385,11.1563 82.1406,10.9063 81.6719,10.4063 C81.1615,9.875 80.9063,9.09375 80.9063,8.0625 C80.9063,6.98958 81.1354,6.1875 81.5938,5.65625 C82.0729,5.11458 82.7396,4.84375 83.5938,4.84375 C84.375,4.84375 84.9688,5.10417 85.375,5.625 C85.7708,6.16667 85.9688,6.875 85.9688,7.75 M85.4688,7.64063 C85.4688,6.79688 85.276,6.18229 84.8906,5.79688 C84.5781,5.45313 84.1458,5.28125 83.5938,5.28125 C83,5.28125 82.5,5.45833 82.0938,5.8125 C81.7188,6.14583 81.4948,6.75521 81.4219,7.64063 L85.4688,7.64063 M88.0469,2.64063 L88.5313,2.64063 L88.5313,11 L88.0469,11 L88.0469,2.64063"/>
</g>

<g fill="none" stroke="#000000" stroke-opacity="1" stroke-width="1" stroke-linecap="square" stroke-linejoin="bevel" transform="matrix(2,0,0,2,178.156,301)"
font-family="sans" font-size="11" font-weight="100" font-style="normal" 
>
</g>

<g fill="none" stroke="#000000" stroke-opacity="1" stroke-width="1" stroke-linecap="square" stroke-linejoin="bevel" transform="matrix(2,0,0,2,178.156,301)"
font-family="Ubuntu" font-size="11" font-weight="400" font-style="normal" 
>
</g>

<g fill="none" stroke="#000000" stroke-opacity="1" stroke-width="1" stroke-linecap="square" stroke-linejoin="bevel" transform="matrix(2,0,0,2,0,383)"
font-family="Ubuntu" font-size="11" font-weight="400" font-style="normal" 
>
</g>

<g fill="none" stroke="#000000" stroke-opacity="1" stroke-width="1" stroke-linecap="square" stroke-linejoin="bevel" transform="matrix(2,0,0,2,0,383)"
font-family="Ubuntu" font-size="11" font-weight="400" font-style="normal" 
>
</g>

<g fill="none" stroke="#000000" stroke-opacity="1" stroke-width="1" stroke-linecap="square" stroke-linejoin="bevel" transform="matrix(2,0,0,2,0,383)"
font-family="Ubuntu" font-size="11" font-weight="400" font-style="normal" 
>
</g>

<g fill="none" stroke="#000000" stroke-opacity="1" stroke-width="1" stroke-linecap="square" stroke-linejoin="round" transform="matrix(2,0,0,2,0,383)"
font-family="Ubuntu" font-size="11" font-weight="400" font-style="normal" 
>
<rect x="92.4988" y="-159.5" width="83.0024" height="35"/>
</g>

<g fill="none" stroke="#000000" stroke-opacity="1" stroke-width="1" stroke-linecap="square" stroke-linejoin="bevel" transform="matrix(2,0,0,2,0,383)"
font-family="Ubuntu" font-size="11" font-weight="400" font-style="normal" 
>
</g>

<g fill="none" stroke="#000000" stroke-opacity="1" stroke-width="1" stroke-linecap="square" stroke-linejoin="bevel" transform="matrix(2,0,0,2,197.516,85)"
font-family="Ubuntu" font-size="11" font-weight="400" font-style="normal" 
>
</g>

<g fill="none" stroke="#000000" stroke-opacity="1" stroke-width="1" stroke-linecap="square" stroke-linejoin="bevel" transform="matrix(2,0,0,2,197.516,85)"
font-family="sans" font-size="11" font-weight="100" font-style="normal" 
>
</g>

<g fill="#000000" fill-opacity="1" stroke="#000000" stroke-opacity="1" stroke-width="1" stroke-linecap="square" stroke-linejoin="round" transform="matrix(2,0,0,2,197.516,85)"
font-family="sans" font-size="11" font-weight="100" font-style="normal" 
>
<path vector-effect="none" fill-rule="nonzero" d="M2.96875,2.98438 L3.53125,2.98438 L0.734375,12.0156 L0.171875,12.0156 L2.96875,2.98438 M5.46875,3.28125 L5.46875,4.98438 L7.5,4.98438 L7.5,5.40625 L5.46875,5.40625 L5.46875,9.01563 C5.46875,9.47396 5.52604,9.79688 5.64063,9.98438 C5.89063,10.3802 6.25,10.5781 6.71875,10.5781 L7.5,10.5781 L7.5,11 L6.73438,11 C6.24479,11 5.82813,10.8568 5.48438,10.5703 C5.14063,10.2839 4.96875,9.76563 4.96875,9.01563 L4.96875,5.40625 L4.25,5.40625 L4.25,4.98438 L4.96875,4.98438 L4.96875,3.28125 L5.46875,3.28125 M9.20313,8.60938 L9.20313,4.98438 L9.6875,4.98438 L9.6875,8.57813 C9.6875,9.35938 9.8125,9.90885 10.0625,10.2266 C10.3125,10.5443 10.6823,10.7031 11.1719,10.7031 C11.7448,10.7031 12.2344,10.5313 12.6406,10.1875 C13.0469,9.84375 13.25,9.24479 13.25,8.39063 L13.25,4.98438 L13.7344,4.98438 L13.7344,11 L13.25,11 L13.25,9.875 C13.0729,10.2396 12.8385,10.5156 12.5469,10.7031 C12.1302,10.9948 11.6667,11.1406 11.1563,11.1406 C10.5625,11.1406 10.0885,10.9375 9.73438,10.5313 C9.38021,10.1354 9.20313,9.49479 9.20313,8.60938 M19.5,5.40625 C19.4167,5.36458 19.3073,5.33333 19.1719,5.3125 C19.0469,5.29167 18.8958,5.28125 18.7188,5.28125 C18.1042,5.28125 17.599,5.50521 17.2031,5.95313 C16.8802,6.31771 16.7188,6.94271 16.7188,7.82813 L16.7188,11 L16.2344,11 L16.2344,4.98438 L16.7188,4.98438 L16.7188,6.10938 C16.8854,5.78646 17.1146,5.51563 17.4063,5.29688 C17.8021,4.99479 18.2708,4.84375 18.8125,4.84375 C18.9583,4.84375 19.0833,4.84896 19.1875,4.85938 C19.2917,4.85938 19.3958,4.86979 19.5,4.89063 L19.5,5.40625 M21.2656,3.28125 L21.2656,4.98438 L23.2969,4.98438 L23.2969,5.40625 L21.2656,5.40625 L21.2656,9.01563 C21.2656,9.47396 21.3229,9.79688 21.4375,9.98438 C21.6875,10.3802 22.0469,10.5781 22.5156,10.5781 L23.2969,10.5781 L23.2969,11 L22.5313,11 C22.0417,11 21.625,10.8568 21.2813,10.5703 C20.9375,10.2839 20.7656,9.76563 20.7656,9.01563 L20.7656,5.40625 L20.0469,5.40625 L20.0469,4.98438 L20.7656,4.98438 L20.7656,3.28125 L21.2656,3.28125 M25.0625,2.64063 L25.5469,2.64063 L25.5469,11 L25.0625,11 L25.0625,2.64063 M32.7969,7.75 L32.7969,8.0625 L28.2344,8.0625 C28.2344,9.02083 28.4219,9.69792 28.7969,10.0938 C29.2135,10.5208 29.8281,10.7344 30.6406,10.7344 C30.8594,10.7344 31.1458,10.6875 31.5,10.5938 C31.8542,10.5 32.2083,10.3594 32.5625,10.1719 L32.5625,10.6875 C32.2083,10.8438 31.8464,10.9609 31.4766,11.0391 C31.1068,11.1172 30.8125,11.1563 30.5938,11.1563 C29.6667,11.1563 28.9688,10.9063 28.5,10.4063 C27.9896,9.875 27.7344,9.09375 27.7344,8.0625 C27.7344,6.98958 27.9635,6.1875 28.4219,5.65625 C28.901,5.11458 29.5677,4.84375 30.4219,4.84375 C31.2031,4.84375 31.7969,5.10417 32.2031,5.625 C32.599,6.16667 32.7969,6.875 32.7969,7.75 M32.2969,7.64063 C32.2969,6.79688 32.1042,6.18229 31.7188,5.79688 C31.4063,5.45313 30.974,5.28125 30.4219,5.28125 C29.8281,5.28125 29.3281,5.45833 28.9219,5.8125 C28.5469,6.14583 28.3229,6.75521 28.25,7.64063 L32.2969,7.64063 M35.2656,10.5625 L37.0313,10.5625 L37.0313,3.46875 L34.8281,4.35938 L34.8281,3.85938 L37.0156,2.98438 L37.5625,2.98438 L37.5625,10.5625 L39.3438,10.5625 L39.3438,11 L35.2656,11 L35.2656,10.5625 M43.5781,2.98438 L44.1406,2.98438 L41.3438,12.0156 L40.7813,12.0156 L43.5781,2.98438 M46.0469,9.64063 L46.0469,13.2813 L45.5625,13.2813 L45.5625,4.98438 L46.0469,4.98438 L46.0469,6.35938 C46.276,5.83854 46.5208,5.47917 46.7813,5.28125 C47.1875,4.98958 47.5729,4.84375 47.9375,4.84375 C48.6458,4.84375 49.237,5.13281 49.7109,5.71094 C50.1849,6.28906 50.4219,7.05208 50.4219,8 C50.4219,8.94792 50.1849,9.71094 49.7109,10.2891 C49.237,10.8672 48.6458,11.1563 47.9375,11.1563 C47.5729,11.1563 47.1875,11.0052 46.7813,10.7031 C46.5208,10.5156 46.276,10.1615 46.0469,9.64063 M49.2813,10.0938 C49.6979,9.67708 49.9063,8.97917 49.9063,8 C49.9063,7.02083 49.6979,6.32292 49.2813,5.90625 C48.8646,5.48958 48.4271,5.28125 47.9688,5.28125 C47.5208,5.28125 47.0885,5.48958 46.6719,5.90625 C46.2656,6.32292 46.0625,7.02083 46.0625,8 C46.0625,8.97917 46.2656,9.67708 46.6719,10.0938 C47.0885,10.5104 47.5208,10.7188 47.9688,10.7188 C48.4271,10.7188 48.8646,10.5104 49.2813,10.0938 M56.1094,6.01563 C55.7552,5.52604 55.2708,5.28125 54.6563,5.28125 C54.0417,5.28125 53.5573,5.52604 53.2031,6.01563 C52.849,6.49479 52.6719,7.15104 52.6719,7.98438 C52.6719,8.83854 52.849,9.51042 53.2031,10 C53.5573,10.4896 54.0417,10.7344 54.6563,10.7344 C55.2708,10.7344 55.7552,10.4896 56.1094,10 C56.4635,9.5 56.6406,8.82813 56.6406,7.98438 C56.6406,7.16146 56.4635,6.50521 56.1094,6.01563 M54.6563,4.84375 C55.4167,4.84375 56.0208,5.13021 56.4688,5.70313 C56.9167,6.27604 57.1406,7.03646 57.1406,7.98438 C57.1406,8.97396 56.9167,9.75521 56.4688,10.3281 C56.0208,10.901 55.4167,11.1875 54.6563,11.1875 C53.875,11.1875 53.2604,10.901 52.8125,10.3281 C52.375,9.75521 52.1563,8.97396 52.1563,7.98438 C52.1563,7.02604 52.3802,6.26302 52.8281,5.69531 C53.276,5.1276 53.8854,4.84375 54.6563,4.84375 M62.6563,5.15625 L62.6563,5.70313 C62.3021,5.50521 62.0833,5.39583 62,5.375 C61.75,5.32292 61.4375,5.29167 61.0625,5.28125 C60.5,5.28125 60.0573,5.39063 59.7344,5.60938 C59.4844,5.79688 59.3594,6.11458 59.3594,6.5625 C59.3594,6.875 59.4792,7.11458 59.7188,7.28125 C59.9583,7.46875 60.3073,7.61458 60.7656,7.71875 L61.1094,7.78125 C61.6823,7.90625 62.1146,8.08333 62.4063,8.3125 C62.75,8.58333 62.9271,8.92708 62.9375,9.34375 C62.9375,9.90625 62.7708,10.349 62.4375,10.6719 C62.0833,10.9948 61.5052,11.1563 60.7031,11.1563 C60.2656,11.1563 59.9323,11.125 59.7031,11.0625 C59.4219,10.9896 59.1302,10.8958 58.8281,10.7813 L58.8281,10.1563 C59.2656,10.4063 59.5469,10.5521 59.6719,10.5938 C60.026,10.6875 60.3802,10.7344 60.7344,10.7344 C61.3073,10.7344 61.7344,10.6146 62.0156,10.375 C62.2969,10.125 62.4375,9.80729 62.4375,9.42188 C62.4375,9.08854 62.3438,8.84896 62.1563,8.70313 C61.8854,8.48438 61.4583,8.30729 60.875,8.17188 L60.5313,8.09375 C60.0208,7.96875 59.6354,7.80208 59.375,7.59375 C59.0417,7.32292 58.875,6.99479 58.875,6.60938 C58.875,5.98438 59.0755,5.53385 59.4766,5.25781 C59.8776,4.98177 60.3698,4.84375 60.9531,4.84375 C61.4531,4.84375 61.7969,4.86979 61.9844,4.92188 C62.2135,4.98438 62.4375,5.0625 62.6563,5.15625 M69.6563,7.75 L69.6563,8.0625 L65.0938,8.0625 C65.0938,9.02083 65.2813,9.69792 65.6563,10.0938 C66.0729,10.5208 66.6875,10.7344 67.5,10.7344 C67.7188,10.7344 68.0052,10.6875 68.3594,10.5938 C68.7135,10.5 69.0677,10.3594 69.4219,10.1719 L69.4219,10.6875 C69.0677,10.8438 68.7057,10.9609 68.3359,11.0391 C67.9661,11.1172 67.6719,11.1563 67.4531,11.1563 C66.526,11.1563 65.8281,10.9063 65.3594,10.4063 C64.849,9.875 64.5938,9.09375 64.5938,8.0625 C64.5938,6.98958 64.8229,6.1875 65.2813,5.65625 C65.7604,5.11458 66.4271,4.84375 67.2813,4.84375 C68.0625,4.84375 68.6563,5.10417 69.0625,5.625 C69.4583,6.16667 69.6563,6.875 69.6563,7.75 M69.1563,7.64063 C69.1563,6.79688 68.9635,6.18229 68.5781,5.79688 C68.2656,5.45313 67.8333,5.28125 67.2813,5.28125 C66.6875,5.28125 66.1875,5.45833 65.7813,5.8125 C65.4063,6.14583 65.1823,6.75521 65.1094,7.64063 L69.1563,7.64063"/>
</g>

<g fill="none" stroke="#000000" stroke-opacity="1" stroke-width="1" stroke-linecap="square" stroke-linejoin="bevel" transform="matrix(2,0,0,2,197.516,85)"
font-family="sans" font-size="11" font-weight="100" font-style="normal" 
>
</g>

<g fill="none" stroke="#000000" stroke-opacity="1" stroke-width="1" stroke-linecap="square" stroke-linejoin="bevel" transform="matrix(2,0,0,2,197.516,85)"
font-family="Ubuntu" font-size="11" font-weight="400" font-style="normal" 
>
</g>

<g fill="none" stroke="#000000" stroke-opacity="1" stroke-width="1" stroke-linecap="square" stroke-linejoin="bevel" transform="matrix(2,0,0,2,0,383)"
font-family="Ubuntu" font-size="11" font-weight="400" font-style="normal" 
>
</g>

<g fill="none" stroke="#000000" stroke-opacity="1" stroke-width="1" stroke-linecap="square" stroke-linejoin="bevel" transform="matrix(2,0,0,2,0,383)"
font-family="Ubuntu" font-size="11" font-weight="400" font-style="normal" 
>
</g>

<g fill="none" stroke="#000000" stroke-opacity="1" stroke-width="1" stroke-linecap="square" stroke-linejoin="bevel" transform="matrix(2,0,0,2,0,383)"
font-family="Ubuntu" font-size="11" font-weight="400" font-style="normal" 
>
</g>

<g fill="none" stroke="#000000" stroke-opacity="1" stroke-width="1" stroke-linecap="square" stroke-linejoin="round" transform="matrix(2,0,0,2,0,383)"
font-family="Ubuntu" font-size="11" font-weight="400" font-style="normal" 
>
<rect x="70.4992" y="-105.5" width="127.002" height="35"/>
</g>

<g fill="none" stroke="#000000" stroke-opacity="1" stroke-width="1" stroke-linecap="square" stroke-linejoin="bevel" transform="matrix(2,0,0,2,0,383)"
font-family="Ubuntu" font-size="11" font-weight="400" font-style="normal" 
>
</g>

<g fill="none" stroke="#000000" stroke-opacity="1" stroke-width="1" stroke-linecap="square" stroke-linejoin="bevel" transform="matrix(2,0,0,2,154.734,193)"
font-family="Ubuntu" font-size="11" font-weight="400" font-style="normal" 
>
</g>

<g fill="none" stroke="#000000" stroke-opacity="1" stroke-width="1" stroke-linecap="square" stroke-linejoin="bevel" transform="matrix(2,0,0,2,154.734,193)"
font-family="sans" font-size="11" font-weight="100" font-style="normal" 
>
</g>

<g fill="#000000" fill-opacity="1" stroke="#000000" stroke-opacity="1" stroke-width="1" stroke-linecap="square" stroke-linejoin="round" transform="matrix(2,0,0,2,154.734,193)"
font-family="sans" font-size="11" font-weight="100" font-style="normal" 
>
<path vector-effect="none" fill-rule="nonzero" d="M2.96875,2.98438 L3.53125,2.98438 L0.734375,12.0156 L0.171875,12.0156 L2.96875,2.98438 M5.46875,3.28125 L5.46875,4.98438 L7.5,4.98438 L7.5,5.40625 L5.46875,5.40625 L5.46875,9.01563 C5.46875,9.47396 5.52604,9.79688 5.64063,9.98438 C5.89063,10.3802 6.25,10.5781 6.71875,10.5781 L7.5,10.5781 L7.5,11 L6.73438,11 C6.24479,11 5.82813,10.8568 5.48438,10.5703 C5.14063,10.2839 4.96875,9.76563 4.96875,9.01563 L4.96875,5.40625 L4.25,5.40625 L4.25,4.98438 L4.96875,4.98438 L4.96875,3.28125 L5.46875,3.28125 M9.20313,8.60938 L9.20313,4.98438 L9.6875,4.98438 L9.6875,8.57813 C9.6875,9.35938 9.8125,9.90885 10.0625,10.2266 C10.3125,10.5443 10.6823,10.7031 11.1719,10.7031 C11.7448,10.7031 12.2344,10.5313 12.6406,10.1875 C13.0469,9.84375 13.25,9.24479 13.25,8.39063 L13.25,4.98438 L13.7344,4.98438 L13.7344,11 L13.25,11 L13.25,9.875 C13.0729,10.2396 12.8385,10.5156 12.5469,10.7031 C12.1302,10.9948 11.6667,11.1406 11.1563,11.1406 C10.5625,11.1406 10.0885,10.9375 9.73438,10.5313 C9.38021,10.1354 9.20313,9.49479 9.20313,8.60938 M19.5,5.40625 C19.4167,5.36458 19.3073,5.33333 19.1719,5.3125 C19.0469,5.29167 18.8958,5.28125 18.7188,5.28125 C18.1042,5.28125 17.599,5.50521 17.2031,5.95313 C16.8802,6.31771 16.7188,6.94271 16.7188,7.82813 L16.7188,11 L16.2344,11 L16.2344,4.98438 L16.7188,4.98438 L16.7188,6.10938 C16.8854,5.78646 17.1146,5.51563 17.4063,5.29688 C17.8021,4.99479 18.2708,4.84375 18.8125,4.84375 C18.9583,4.84375 19.0833,4.84896 19.1875,4.85938 C19.2917,4.85938 19.3958,4.86979 19.5,4.89063 L19.5,5.40625 M21.2656,3.28125 L21.2656,4.98438 L23.2969,4.98438 L23.2969,5.40625 L21.2656,5.40625 L21.2656,9.01563 C21.2656,9.47396 21.3229,9.79688 21.4375,9.98438 C21.6875,10.3802 22.0469,10.5781 22.5156,10.5781 L23.2969,10.5781 L23.2969,11 L22.5313,11 C22.0417,11 21.625,10.8568 21.2813,10.5703 C20.9375,10.2839 20.7656,9.76563 20.7656,9.01563 L20.7656,5.40625 L20.0469,5.40625 L20.0469,4.98438 L20.7656,4.98438 L20.7656,3.28125 L21.2656,3.28125 M25.0625,2.64063 L25.5469,2.64063 L25.5469,11 L25.0625,11 L25.0625,2.64063 M32.7969,7.75 L32.7969,8.0625 L28.2344,8.0625 C28.2344,9.02083 28.4219,9.69792 28.7969,10.0938 C29.2135,10.5208 29.8281,10.7344 30.6406,10.7344 C30.8594,10.7344 31.1458,10.6875 31.5,10.5938 C31.8542,10.5 32.2083,10.3594 32.5625,10.1719 L32.5625,10.6875 C32.2083,10.8438 31.8464,10.9609 31.4766,11.0391 C31.1068,11.1172 30.8125,11.1563 30.5938,11.1563 C29.6667,11.1563 28.9688,10.9063 28.5,10.4063 C27.9896,9.875 27.7344,9.09375 27.7344,8.0625 C27.7344,6.98958 27.9635,6.1875 28.4219,5.65625 C28.901,5.11458 29.5677,4.84375 30.4219,4.84375 C31.2031,4.84375 31.7969,5.10417 32.2031,5.625 C32.599,6.16667 32.7969,6.875 32.7969,7.75 M32.2969,7.64063 C32.2969,6.79688 32.1042,6.18229 31.7188,5.79688 C31.4063,5.45313 30.974,5.28125 30.4219,5.28125 C29.8281,5.28125 29.3281,5.45833 28.9219,5.8125 C28.5469,6.14583 28.3229,6.75521 28.25,7.64063 L32.2969,7.64063 M35.2656,10.5625 L37.0313,10.5625 L37.0313,3.46875 L34.8281,4.35938 L34.8281,3.85938 L37.0156,2.98438 L37.5625,2.98438 L37.5625,10.5625 L39.3438,10.5625 L39.3438,11 L35.2656,11 L35.2656,10.5625 M43.5781,2.98438 L44.1406,2.98438 L41.3438,12.0156 L40.7813,12.0156 L43.5781,2.98438 M49.6719,5.28125 L49.6719,5.79688 C49.3802,5.61979 49.1354,5.5 48.9375,5.4375 C48.6042,5.33333 48.2865,5.28125 47.9844,5.28125 C47.1198,5.28125 46.5,5.5026 46.125,5.94531 C45.75,6.38802 45.5625,7.07292 45.5625,8 C45.5625,8.9375 45.75,9.6276 46.125,10.0703 C46.5,10.513 47.1198,10.7344 47.9844,10.7344 C48.276,10.7344 48.5573,10.6927 48.8281,10.6094 C49.1198,10.5365 49.401,10.4219 49.6719,10.2656 L49.6719,10.7656 C49.401,10.901 49.1198,11 48.8281,11.0625 C48.526,11.125 48.2292,11.1563 47.9375,11.1563 C47.0625,11.1563 46.3646,10.9167 45.8438,10.4375 C45.3229,9.95833 45.0625,9.14323 45.0625,7.99219 C45.0625,6.84115 45.3229,6.02604 45.8438,5.54688 C46.3646,5.07813 47.0625,4.84375 47.9375,4.84375 C48.2292,4.84375 48.5365,4.88542 48.8594,4.96875 C49.1823,5.04167 49.4531,5.14583 49.6719,5.28125 M55.1875,6.01563 C54.8333,5.52604 54.349,5.28125 53.7344,5.28125 C53.1198,5.28125 52.6354,5.52604 52.2813,6.01563 C51.9271,6.49479 51.75,7.15104 51.75,7.98438 C51.75,8.83854 51.9271,9.51042 52.2813,10 C52.6354,10.4896 53.1198,10.7344 53.7344,10.7344 C54.349,10.7344 54.8333,10.4896 55.1875,10 C55.5417,9.5 55.7188,8.82813 55.7188,7.98438 C55.7188,7.16146 55.5417,6.50521 55.1875,6.01563 M53.7344,4.84375 C54.4948,4.84375 55.099,5.13021 55.5469,5.70313 C55.9948,6.27604 56.2188,7.03646 56.2188,7.98438 C56.2188,8.97396 55.9948,9.75521 55.5469,10.3281 C55.099,10.901 54.4948,11.1875 53.7344,11.1875 C52.9531,11.1875 52.3385,10.901 51.8906,10.3281 C51.4531,9.75521 51.2344,8.97396 51.2344,7.98438 C51.2344,7.02604 51.4583,6.26302 51.9063,5.69531 C52.3542,5.1276 52.9635,4.84375 53.7344,4.84375 M58.3281,2.64063 L58.8125,2.64063 L58.8125,11 L58.3281,11 L58.3281,2.64063 M64.9531,6.01563 C64.599,5.52604 64.1146,5.28125 63.5,5.28125 C62.8854,5.28125 62.401,5.52604 62.0469,6.01563 C61.6927,6.49479 61.5156,7.15104 61.5156,7.98438 C61.5156,8.83854 61.6927,9.51042 62.0469,10 C62.401,10.4896 62.8854,10.7344 63.5,10.7344 C64.1146,10.7344 64.599,10.4896 64.9531,10 C65.3073,9.5 65.4844,8.82813 65.4844,7.98438 C65.4844,7.16146 65.3073,6.50521 64.9531,6.01563 M63.5,4.84375 C64.2604,4.84375 64.8646,5.13021 65.3125,5.70313 C65.7604,6.27604 65.9844,7.03646 65.9844,7.98438 C65.9844,8.97396 65.7604,9.75521 65.3125,10.3281 C64.8646,10.901 64.2604,11.1875 63.5,11.1875 C62.7188,11.1875 62.1042,10.901 61.6563,10.3281 C61.2188,9.75521 61,8.97396 61,7.98438 C61,7.02604 61.224,6.26302 61.6719,5.69531 C62.1198,5.1276 62.7292,4.84375 63.5,4.84375 M71.3594,5.40625 C71.276,5.36458 71.1667,5.33333 71.0313,5.3125 C70.9063,5.29167 70.7552,5.28125 70.5781,5.28125 C69.9635,5.28125 69.4583,5.50521 69.0625,5.95313 C68.7396,6.31771 68.5781,6.94271 68.5781,7.82813 L68.5781,11 L68.0938,11 L68.0938,4.98438 L68.5781,4.98438 L68.5781,6.10938 C68.7448,5.78646 68.974,5.51563 69.2656,5.29688 C69.6615,4.99479 70.1302,4.84375 70.6719,4.84375 C70.8177,4.84375 70.9427,4.84896 71.0469,4.85938 C71.151,4.85938 71.2552,4.86979 71.3594,4.89063 L71.3594,5.40625 M76.9688,13.1719 L76.9688,13.5938 L71.25,13.5938 L71.25,13.1719 L76.9688,13.1719 M81.5156,5.15625 L81.5156,5.70313 C81.1615,5.50521 80.9427,5.39583 80.8594,5.375 C80.6094,5.32292 80.2969,5.29167 79.9219,5.28125 C79.3594,5.28125 78.9167,5.39063 78.5938,5.60938 C78.3438,5.79688 78.2188,6.11458 78.2188,6.5625 C78.2188,6.875 78.3385,7.11458 78.5781,7.28125 C78.8177,7.46875 79.1667,7.61458 79.625,7.71875 L79.9688,7.78125 C80.5417,7.90625 80.974,8.08333 81.2656,8.3125 C81.6094,8.58333 81.7865,8.92708 81.7969,9.34375 C81.7969,9.90625 81.6302,10.349 81.2969,10.6719 C80.9427,10.9948 80.3646,11.1563 79.5625,11.1563 C79.125,11.1563 78.7917,11.125 78.5625,11.0625 C78.2813,10.9896 77.9896,10.8958 77.6875,10.7813 L77.6875,10.1563 C78.125,10.4063 78.4063,10.5521 78.5313,10.5938 C78.8854,10.6875 79.2396,10.7344 79.5938,10.7344 C80.1667,10.7344 80.5938,10.6146 80.875,10.375 C81.1563,10.125 81.2969,9.80729 81.2969,9.42188 C81.2969,9.08854 81.2031,8.84896 81.0156,8.70313 C80.7448,8.48438 80.3177,8.30729 79.7344,8.17188 L79.3906,8.09375 C78.8802,7.96875 78.4948,7.80208 78.2344,7.59375 C77.901,7.32292 77.7344,6.99479 77.7344,6.60938 C77.7344,5.98438 77.9349,5.53385 78.3359,5.25781 C78.737,4.98177 79.2292,4.84375 79.8125,4.84375 C80.3125,4.84375 80.6563,4.86979 80.8438,4.92188 C81.0729,4.98438 81.2969,5.0625 81.5156,5.15625 M88.5156,7.75 L88.5156,8.0625 L83.9531,8.0625 C83.9531,9.02083 84.1406,9.69792 84.5156,10.0938 C84.9323,10.5208 85.5469,10.7344 86.3594,10.7344 C86.5781,10.7344 86.8646,10.6875 87.2188,10.5938 C87.5729,10.5 87.9271,10.3594 88.2813,10.1719 L88.2813,10.6875 C87.9271,10.8438 87.5651,10.9609 87.1953,11.0391 C86.8255,11.1172 86.5313,11.1563 86.3125,11.1563 C85.3854,11.1563 84.6875,10.9063 84.2188,10.4063 C83.7083,9.875 83.4531,9.09375 83.4531,8.0625 C83.4531,6.98958 83.6823,6.1875 84.1406,5.65625 C84.6198,5.11458 85.2865,4.84375 86.1406,4.84375 C86.9219,4.84375 87.5156,5.10417 87.9219,5.625 C88.3177,6.16667 88.5156,6.875 88.5156,7.75 M88.0156,7.64063 C88.0156,6.79688 87.8229,6.18229 87.4375,5.79688 C87.125,5.45313 86.6927,5.28125 86.1406,5.28125 C85.5469,5.28125 85.0469,5.45833 84.6406,5.8125 C84.2656,6.14583 84.0417,6.75521 83.9688,7.64063 L88.0156,7.64063 M95.1406,7.375 L95.1406,11 L94.6406,11 L94.6406,7.40625 C94.6406,6.625 94.5156,6.07552 94.2656,5.75781 C94.0156,5.4401 93.6458,5.28125 93.1563,5.28125 C92.5833,5.28125 92.099,5.45313 91.7031,5.79688 C91.2865,6.14063 91.0781,6.73958 91.0781,7.59375 L91.0781,11 L90.5938,11 L90.5938,4.98438 L91.0781,4.98438 L91.0781,6.10938 C91.2552,5.74479 91.4896,5.46875 91.7813,5.28125 C92.1979,4.98958 92.6615,4.84375 93.1719,4.84375 C93.776,4.84375 94.2552,5.04688 94.6094,5.45313 C94.9635,5.84896 95.1406,6.48958 95.1406,7.375 M100.969,5.15625 L100.969,5.70313 C100.615,5.50521 100.396,5.39583 100.313,5.375 C100.063,5.32292 99.75,5.29167 99.375,5.28125 C98.8125,5.28125 98.3698,5.39063 98.0469,5.60938 C97.7969,5.79688 97.6719,6.11458 97.6719,6.5625 C97.6719,6.875 97.7917,7.11458 98.0313,7.28125 C98.2708,7.46875 98.6198,7.61458 99.0781,7.71875 L99.4219,7.78125 C99.9948,7.90625 100.427,8.08333 100.719,8.3125 C101.063,8.58333 101.24,8.92708 101.25,9.34375 C101.25,9.90625 101.083,10.349 100.75,10.6719 C100.396,10.9948 99.8177,11.1563 99.0156,11.1563 C98.5781,11.1563 98.2448,11.125 98.0156,11.0625 C97.7344,10.9896 97.4427,10.8958 97.1406,10.7813 L97.1406,10.1563 C97.5781,10.4063 97.8594,10.5521 97.9844,10.5938 C98.3385,10.6875 98.6927,10.7344 99.0469,10.7344 C99.6198,10.7344 100.047,10.6146 100.328,10.375 C100.609,10.125 100.75,9.80729 100.75,9.42188 C100.75,9.08854 100.656,8.84896 100.469,8.70313 C100.198,8.48438 99.7708,8.30729 99.1875,8.17188 L98.8438,8.09375 C98.3333,7.96875 97.9479,7.80208 97.6875,7.59375 C97.3542,7.32292 97.1875,6.99479 97.1875,6.60938 C97.1875,5.98438 97.388,5.53385 97.7891,5.25781 C98.1901,4.98177 98.6823,4.84375 99.2656,4.84375 C99.7656,4.84375 100.109,4.86979 100.297,4.92188 C100.526,4.98438 100.75,5.0625 100.969,5.15625 M106.859,6.01563 C106.505,5.52604 106.021,5.28125 105.406,5.28125 C104.792,5.28125 104.307,5.52604 103.953,6.01563 C103.599,6.49479 103.422,7.15104 103.422,7.98438 C103.422,8.83854 103.599,9.51042 103.953,10 C104.307,10.4896 104.792,10.7344 105.406,10.7344 C106.021,10.7344 106.505,10.4896 106.859,10 C107.214,9.5 107.391,8.82813 107.391,7.98438 C107.391,7.16146 107.214,6.50521 106.859,6.01563 M105.406,4.84375 C106.167,4.84375 106.771,5.13021 107.219,5.70313 C107.667,6.27604 107.891,7.03646 107.891,7.98438 C107.891,8.97396 107.667,9.75521 107.219,10.3281 C106.771,10.901 106.167,11.1875 105.406,11.1875 C104.625,11.1875 104.01,10.901 103.563,10.3281 C103.125,9.75521 102.906,8.97396 102.906,7.98438 C102.906,7.02604 103.13,6.26302 103.578,5.69531 C104.026,5.1276 104.635,4.84375 105.406,4.84375 M113.266,5.40625 C113.182,5.36458 113.073,5.33333 112.938,5.3125 C112.813,5.29167 112.661,5.28125 112.484,5.28125 C111.87,5.28125 111.365,5.50521 110.969,5.95313 C110.646,6.31771 110.484,6.94271 110.484,7.82813 L110.484,11 L110,11 L110,4.98438 L110.484,4.98438 L110.484,6.10938 C110.651,5.78646 110.88,5.51563 111.172,5.29688 C111.568,4.99479 112.036,4.84375 112.578,4.84375 C112.724,4.84375 112.849,4.84896 112.953,4.85938 C113.057,4.85938 113.161,4.86979 113.266,4.89063 L113.266,5.40625"/>
</g>

<g fill="none" stroke="#000000" stroke-opacity="1" stroke-width="1" stroke-linecap="square" stroke-linejoin="bevel" transform="matrix(2,0,0,2,154.734,193)"
font-family="sans" font-size="11" font-weight="100" font-style="normal" 
>
</g>

<g fill="none" stroke="#000000" stroke-opacity="1" stroke-width="1" stroke-linecap="square" stroke-linejoin="bevel" transform="matrix(2,0,0,2,154.734,193)"
font-family="Ubuntu" font-size="11" font-weight="400" font-style="normal" 
>
</g>

<g fill="none" stroke="#000000" stroke-opacity="1" stroke-width="1" stroke-linecap="square" stroke-linejoin="bevel" transform="matrix(2,0,0,2,0,383)"
font-family="Ubuntu" font-size="11" font-weight="400" font-style="normal" 
>
</g>

<g fill="none" stroke="#000000" stroke-opacity="1" stroke-width="1" stroke-linecap="square" stroke-linejoin="bevel" transform="matrix(2,0,0,2,0,383)"
font-family="Ubuntu" font-size="11" font-weight="400" font-style="normal" 
>
</g>

<g fill="none" stroke="#000000" stroke-opacity="1" stroke-width="1" stroke-linecap="square" stroke-linejoin="bevel" transform="matrix(2,0,0,2,0,383)"
font-family="Ubuntu" font-size="11" font-weight="400" font-style="normal" 
>
</g>

<g fill="none" stroke="#000000" stroke-opacity="1" stroke-width="1" stroke-linecap="square" stroke-linejoin="round" transform="matrix(2,0,0,2,0,383)"
font-family="Ubuntu" font-size="11" font-weight="400" font-style="normal" 
>
<rect x="81.0004" y="-51.5" width="105.999" height="35"/>
</g>

<g fill="none" stroke="#000000" stroke-opacity="1" stroke-width="1" stroke-linecap="square" stroke-linejoin="bevel" transform="matrix(2,0,0,2,0,383)"
font-family="Ubuntu" font-size="11" font-weight="400" font-style="normal" 
>
</g>

<g fill="none" stroke="#000000" stroke-opacity="1" stroke-width="1" stroke-linecap="square" stroke-linejoin="bevel" transform="matrix(2,0,0,2,178.156,301)"
font-family="Ubuntu" font-size="11" font-weight="400" font-style="normal" 
>
</g>

<g fill="none" stroke="#000000" stroke-opacity="1" stroke-width="1" stroke-linecap="square" stroke-linejoin="bevel" transform="matrix(2,0,0,2,178.156,301)"
font-family="sans" font-size="11" font-weight="100" font-style="normal" 
>
</g>

<g fill="#000000" fill-opacity="1" stroke="#000000" stroke-opacity="1" stroke-width="1" stroke-linecap="square" stroke-linejoin="round" transform="matrix(2,0,0,2,178.156,301)"
font-family="sans" font-size="11" font-weight="100" font-style="normal" 
>
<path vector-effect="none" fill-rule="nonzero" d="M2.96875,2.98438 L3.53125,2.98438 L0.734375,12.0156 L0.171875,12.0156 L2.96875,2.98438 M5.46875,3.28125 L5.46875,4.98438 L7.5,4.98438 L7.5,5.40625 L5.46875,5.40625 L5.46875,9.01563 C5.46875,9.47396 5.52604,9.79688 5.64063,9.98438 C5.89063,10.3802 6.25,10.5781 6.71875,10.5781 L7.5,10.5781 L7.5,11 L6.73438,11 C6.24479,11 5.82813,10.8568 5.48438,10.5703 C5.14063,10.2839 4.96875,9.76563 4.96875,9.01563 L4.96875,5.40625 L4.25,5.40625 L4.25,4.98438 L4.96875,4.98438 L4.96875,3.28125 L5.46875,3.28125 M9.20313,8.60938 L9.20313,4.98438 L9.6875,4.98438 L9.6875,8.57813 C9.6875,9.35938 9.8125,9.90885 10.0625,10.2266 C10.3125,10.5443 10.6823,10.7031 11.1719,10.7031 C11.7448,10.7031 12.2344,10.5313 12.6406,10.1875 C13.0469,9.84375 13.25,9.24479 13.25,8.39063 L13.25,4.98438 L13.7344,4.98438 L13.7344,11 L13.25,11 L13.25,9.875 C13.0729,10.2396 12.8385,10.5156 12.5469,10.7031 C12.1302,10.9948 11.6667,11.1406 11.1563,11.1406 C10.5625,11.1406 10.0885,10.9375 9.73438,10.5313 C9.38021,10.1354 9.20313,9.49479 9.20313,8.60938 M19.5,5.40625 C19.4167,5.36458 19.3073,5.33333 19.1719,5.3125 C19.0469,5.29167 18.8958,5.28125 18.7188,5.28125 C18.1042,5.28125 17.599,5.50521 17.2031,5.95313 C16.8802,6.31771 16.7188,6.94271 16.7188,7.82813 L16.7188,11 L16.2344,11 L16.2344,4.98438 L16.7188,4.98438 L16.7188,6.10938 C16.8854,5.78646 17.1146,5.51563 17.4063,5.29688 C17.8021,4.99479 18.2708,4.84375 18.8125,4.84375 C18.9583,4.84375 19.0833,4.84896 19.1875,4.85938 C19.2917,4.85938 19.3958,4.86979 19.5,4.89063 L19.5,5.40625 M21.2656,3.28125 L21.2656,4.98438 L23.2969,4.98438 L23.2969,5.40625 L21.2656,5.40625 L21.2656,9.01563 C21.2656,9.47396 21.3229,9.79688 21.4375,9.98438 C21.6875,10.3802 22.0469,10.5781 22.5156,10.5781 L23.2969,10.5781 L23.2969,11 L22.5313,11 C22.0417,11 21.625,10.8568 21.2813,10.5703 C20.9375,10.2839 20.7656,9.76563 20.7656,9.01563 L20.7656,5.40625 L20.0469,5.40625 L20.0469,4.98438 L20.7656,4.98438 L20.7656,3.28125 L21.2656,3.28125 M25.0625,2.64063 L25.5469,2.64063 L25.5469,11 L25.0625,11 L25.0625,2.64063 M32.7969,7.75 L32.7969,8.0625 L28.2344,8.0625 C28.2344,9.02083 28.4219,9.69792 28.7969,10.0938 C29.2135,10.5208 29.8281,10.7344 30.6406,10.7344 C30.8594,10.7344 31.1458,10.6875 31.5,10.5938 C31.8542,10.5 32.2083,10.3594 32.5625,10.1719 L32.5625,10.6875 C32.2083,10.8438 31.8464,10.9609 31.4766,11.0391 C31.1068,11.1172 30.8125,11.1563 30.5938,11.1563 C29.6667,11.1563 28.9688,10.9063 28.5,10.4063 C27.9896,9.875 27.7344,9.09375 27.7344,8.0625 C27.7344,6.98958 27.9635,6.1875 28.4219,5.65625 C28.901,5.11458 29.5677,4.84375 30.4219,4.84375 C31.2031,4.84375 31.7969,5.10417 32.2031,5.625 C32.599,6.16667 32.7969,6.875 32.7969,7.75 M32.2969,7.64063 C32.2969,6.79688 32.1042,6.18229 31.7188,5.79688 C31.4063,5.45313 30.974,5.28125 30.4219,5.28125 C29.8281,5.28125 29.3281,5.45833 28.9219,5.8125 C28.5469,6.14583 28.3229,6.75521 28.25,7.64063 L32.2969,7.64063 M35.2656,10.5625 L37.0313,10.5625 L37.0313,3.46875 L34.8281,4.35938 L34.8281,3.85938 L37.0156,2.98438 L37.5625,2.98438 L37.5625,10.5625 L39.3438,10.5625 L39.3438,11 L35.2656,11 L35.2656,10.5625 M43.5781,2.98438 L44.1406,2.98438 L41.3438,12.0156 L40.7813,12.0156 L43.5781,2.98438 M49.6719,5.28125 L49.6719,5.79688 C49.3802,5.61979 49.1354,5.5 48.9375,5.4375 C48.6042,5.33333 48.2865,5.28125 47.9844,5.28125 C47.1198,5.28125 46.5,5.5026 46.125,5.94531 C45.75,6.38802 45.5625,7.07292 45.5625,8 C45.5625,8.9375 45.75,9.6276 46.125,10.0703 C46.5,10.513 47.1198,10.7344 47.9844,10.7344 C48.276,10.7344 48.5573,10.6927 48.8281,10.6094 C49.1198,10.5365 49.401,10.4219 49.6719,10.2656 L49.6719,10.7656 C49.401,10.901 49.1198,11 48.8281,11.0625 C48.526,11.125 48.2292,11.1563 47.9375,11.1563 C47.0625,11.1563 46.3646,10.9167 45.8438,10.4375 C45.3229,9.95833 45.0625,9.14323 45.0625,7.99219 C45.0625,6.84115 45.3229,6.02604 45.8438,5.54688 C46.3646,5.07813 47.0625,4.84375 47.9375,4.84375 C48.2292,4.84375 48.5365,4.88542 48.8594,4.96875 C49.1823,5.04167 49.4531,5.14583 49.6719,5.28125 M55.9375,6.29688 C56.125,5.80729 56.4167,5.44271 56.8125,5.20313 C57.1979,4.96354 57.651,4.84375 58.1719,4.84375 C58.6927,4.84375 59.1094,5.02604 59.4219,5.39063 C59.7448,5.75521 59.9063,6.41667 59.9063,7.375 L59.9063,11 L59.4219,11 L59.4219,7.40625 C59.4219,6.57292 59.3073,6.01042 59.0781,5.71875 C58.849,5.42708 58.5417,5.28125 58.1563,5.28125 C57.6042,5.28125 57.1198,5.44792 56.7031,5.78125 C56.2344,6.15625 56,6.76042 56,7.59375 L56,11 L55.5156,11 L55.5156,7.40625 C55.5156,6.60417 55.4036,6.04948 55.1797,5.74219 C54.9557,5.4349 54.6458,5.28125 54.25,5.28125 C53.6979,5.28125 53.2135,5.45313 52.7969,5.79688 C52.3281,6.16146 52.0938,6.76042 52.0938,7.59375 L52.0938,11 L51.6094,11 L51.6094,4.98438 L52.0938,4.98438 L52.0938,6.10938 C52.2708,5.71354 52.5469,5.40104 52.9219,5.17188 C53.2865,4.95313 53.7396,4.84375 54.2813,4.84375 C54.6354,4.84375 54.974,4.95833 55.2969,5.1875 C55.5469,5.375 55.7604,5.74479 55.9375,6.29688 M66.3125,6.35938 L66.3125,2.64063 L66.7813,2.64063 L66.7813,11 L66.3125,11 L66.3125,9.64063 C66.0833,10.1615 65.8333,10.5156 65.5625,10.7031 C65.1667,11.0052 64.7865,11.1563 64.4219,11.1563 C63.7135,11.1563 63.1224,10.8672 62.6484,10.2891 C62.1745,9.71094 61.9375,8.94792 61.9375,8 C61.9375,7.05208 62.1745,6.28906 62.6484,5.71094 C63.1224,5.13281 63.7135,4.84375 64.4219,4.84375 C64.7865,4.84375 65.1667,4.98958 65.5625,5.28125 C65.8333,5.47917 66.0833,5.83854 66.3125,6.35938 M63.0781,5.90625 C62.6615,6.32292 62.4531,7.02083 62.4531,8 C62.4531,8.97917 62.6615,9.67708 63.0781,10.0938 C63.4948,10.5104 63.9323,10.7188 64.3906,10.7188 C64.8385,10.7188 65.2708,10.5104 65.6875,10.0938 C66.0938,9.67708 66.2969,8.97917 66.2969,8 C66.2969,7.02083 66.0938,6.32292 65.6875,5.90625 C65.2708,5.48958 64.8385,5.28125 64.3906,5.28125 C63.9323,5.28125 63.4948,5.48958 63.0781,5.90625 M73.6406,13.1719 L73.6406,13.5938 L67.9219,13.5938 L67.9219,13.1719 L73.6406,13.1719 M74.2344,4.98438 L74.75,4.98438 L76.7813,10.4531 L78.8281,4.98438 L79.3438,4.98438 L77.1094,11 L76.4688,11 L74.2344,4.98438 M85.9688,7.75 L85.9688,8.0625 L81.4063,8.0625 C81.4063,9.02083 81.5938,9.69792 81.9688,10.0938 C82.3854,10.5208 83,10.7344 83.8125,10.7344 C84.0313,10.7344 84.3177,10.6875 84.6719,10.5938 C85.026,10.5 85.3802,10.3594 85.7344,10.1719 L85.7344,10.6875 C85.3802,10.8438 85.0182,10.9609 84.6484,11.0391 C84.2786,11.1172 83.9844,11.1563 83.7656,11.1563 C82.8385,11.1563 82.1406,10.9063 81.6719,10.4063 C81.1615,9.875 80.9063,9.09375 80.9063,8.0625 C80.9063,6.98958 81.1354,6.1875 81.5938,5.65625 C82.0729,5.11458 82.7396,4.84375 83.5938,4.84375 C84.375,4.84375 84.9688,5.10417 85.375,5.625 C85.7708,6.16667 85.9688,6.875 85.9688,7.75 M85.4688,7.64063 C85.4688,6.79688 85.276,6.18229 84.8906,5.79688 C84.5781,5.45313 84.1458,5.28125 83.5938,5.28125 C83,5.28125 82.5,5.45833 82.0938,5.8125 C81.7188,6.14583 81.4948,6.75521 81.4219,7.64063 L85.4688,7.64063 M88.0469,2.64063 L88.5313,2.64063 L88.5313,11 L88.0469,11 L88.0469,2.64063"/>
</g>

<g fill="none" stroke="#000000" stroke-opacity="1" stroke-width="1" stroke-linecap="square" stroke-linejoin="bevel" transform="matrix(2,0,0,2,178.156,301)"
font-family="sans" font-size="11" font-weight="100" font-style="normal" 
>
</g>

<g fill="none" stroke="#000000" stroke-opacity="1" stroke-width="1" stroke-linecap="square" stroke-linejoin="bevel" transform="matrix(2,0,0,2,178.156,301)"
font-family="Ubuntu" font-size="11" font-weight="400" font-style="normal" 
>
</g>

<g fill="none" stroke="#000000" stroke-opacity="1" stroke-width="1" stroke-linecap="square" stroke-linejoin="bevel" transform="matrix(2,0,0,2,0,383)"
font-family="Ubuntu" font-size="11" font-weight="400" font-style="normal" 
>
</g>

<g fill="none" stroke="#000000" stroke-opacity="1" stroke-width="1" stroke-linecap="square" stroke-linejoin="bevel" transform="matrix(2,0,0,2,0,383)"
font-family="Ubuntu" font-size="11" font-weight="400" font-style="normal" 
>
</g>

<g fill="none" stroke="#000000" stroke-opacity="1" stroke-width="1" stroke-linecap="square" stroke-linejoin="bevel" transform="matrix(2,0,0,2,0,383)"
font-family="Ubuntu" font-size="11" font-weight="400" font-style="normal" 
>
</g>

<g fill="none" stroke="#000000" stroke-opacity="1" stroke-width="1" stroke-linecap="square" stroke-linejoin="round" transform="matrix(2,0,0,2,0,383)"
font-family="Ubuntu" font-size="11" font-weight="400" font-style="normal" 
>
<rect x="92.4988" y="-159.5" width="83.0024" height="35"/>
</g>

<g fill="none" stroke="#000000" stroke-opacity="1" stroke-width="1" stroke-linecap="square" stroke-linejoin="bevel" transform="matrix(2,0,0,2,0,383)"
font-family="Ubuntu" font-size="11" font-weight="400" font-style="normal" 
>
</g>

<g fill="none" stroke="#000000" stroke-opacity="1" stroke-width="1" stroke-linecap="square" stroke-linejoin="bevel" transform="matrix(2,0,0,2,197.516,85)"
font-family="Ubuntu" font-size="11" font-weight="400" font-style="normal" 
>
</g>

<g fill="none" stroke="#000000" stroke-opacity="1" stroke-width="1" stroke-linecap="square" stroke-linejoin="bevel" transform="matrix(2,0,0,2,197.516,85)"
font-family="sans" font-size="11" font-weight="100" font-style="normal" 
>
</g>

<g fill="#000000" fill-opacity="1" stroke="#000000" stroke-opacity="1" stroke-width="1" stroke-linecap="square" stroke-linejoin="round" transform="matrix(2,0,0,2,197.516,85)"
font-family="sans" font-size="11" font-weight="100" font-style="normal" 
>
<path vector-effect="none" fill-rule="nonzero" d="M2.96875,2.98438 L3.53125,2.98438 L0.734375,12.0156 L0.171875,12.0156 L2.96875,2.98438 M5.46875,3.28125 L5.46875,4.98438 L7.5,4.98438 L7.5,5.40625 L5.46875,5.40625 L5.46875,9.01563 C5.46875,9.47396 5.52604,9.79688 5.64063,9.98438 C5.89063,10.3802 6.25,10.5781 6.71875,10.5781 L7.5,10.5781 L7.5,11 L6.73438,11 C6.24479,11 5.82813,10.8568 5.48438,10.5703 C5.14063,10.2839 4.96875,9.76563 4.96875,9.01563 L4.96875,5.40625 L4.25,5.40625 L4.25,4.98438 L4.96875,4.98438 L4.96875,3.28125 L5.46875,3.28125 M9.20313,8.60938 L9.20313,4.98438 L9.6875,4.98438 L9.6875,8.57813 C9.6875,9.35938 9.8125,9.90885 10.0625,10.2266 C10.3125,10.5443 10.6823,10.7031 11.1719,10.7031 C11.7448,10.7031 12.2344,10.5313 12.6406,10.1875 C13.0469,9.84375 13.25,9.24479 13.25,8.39063 L13.25,4.98438 L13.7344,4.98438 L13.7344,11 L13.25,11 L13.25,9.875 C13.0729,10.2396 12.8385,10.5156 12.5469,10.7031 C12.1302,10.9948 11.6667,11.1406 11.1563,11.1406 C10.5625,11.1406 10.0885,10.9375 9.73438,10.5313 C9.38021,10.1354 9.20313,9.49479 9.20313,8.60938 M19.5,5.40625 C19.4167,5.36458 19.3073,5.33333 19.1719,5.3125 C19.0469,5.29167 18.8958,5.28125 18.7188,5.28125 C18.1042,5.28125 17.599,5.50521 17.2031,5.95313 C16.8802,6.31771 16.7188,6.94271 16.7188,7.82813 L16.7188,11 L16.2344,11 L16.2344,4.98438 L16.7188,4.98438 L16.7188,6.10938 C16.8854,5.78646 17.1146,5.51563 17.4063,5.29688 C17.8021,4.99479 18.2708,4.84375 18.8125,4.84375 C18.9583,4.84375 19.0833,4.84896 19.1875,4.85938 C19.2917,4.85938 19.3958,4.86979 19.5,4.89063 L19.5,5.40625 M21.2656,3.28125 L21.2656,4.98438 L23.2969,4.98438 L23.2969,5.40625 L21.2656,5.40625 L21.2656,9.01563 C21.2656,9.47396 21.3229,9.79688 21.4375,9.98438 C21.6875,10.3802 22.0469,10.5781 22.5156,10.5781 L23.2969,10.5781 L23.2969,11 L22.5313,11 C22.0417,11 21.625,10.8568 21.2813,10.5703 C20.9375,10.2839 20.7656,9.76563 20.7656,9.01563 L20.7656,5.40625 L20.0469,5.40625 L20.0469,4.98438 L20.7656,4.98438 L20.7656,3.28125 L21.2656,3.28125 M25.0625,2.64063 L25.5469,2.64063 L25.5469,11 L25.0625,11 L25.0625,2.64063 M32.7969,7.75 L32.7969,8.0625 L28.2344,8.0625 C28.2344,9.02083 28.4219,9.69792 28.7969,10.0938 C29.2135,10.5208 29.8281,10.7344 30.6406,10.7344 C30.8594,10.7344 31.1458,10.6875 31.5,10.5938 C31.8542,10.5 32.2083,10.3594 32.5625,10.1719 L32.5625,10.6875 C32.2083,10.8438 31.8464,10.9609 31.4766,11.0391 C31.1068,11.1172 30.8125,11.1563 30.5938,11.1563 C29.6667,11.1563 28.9688,10.9063 28.5,10.4063 C27.9896,9.875 27.7344,9.09375 27.7344,8.0625 C27.7344,6.98958 27.9635,6.1875 28.4219,5.65625 C28.901,5.11458 29.5677,4.84375 30.4219,4.84375 C31.2031,4.84375 31.7969,5.10417 32.2031,5.625 C32.599,6.16667 32.7969,6.875 32.7969,7.75 M32.2969,7.64063 C32.2969,6.79688 32.1042,6.18229 31.7188,5.79688 C31.4063,5.45313 30.974,5.28125 30.4219,5.28125 C29.8281,5.28125 29.3281,5.45833 28.9219,5.8125 C28.5469,6.14583 28.3229,6.75521 28.25,7.64063 L32.2969,7.64063 M35.2656,10.5625 L37.0313,10.5625 L37.0313,3.46875 L34.8281,4.35938 L34.8281,3.85938 L37.0156,2.98438 L37.5625,2.98438 L37.5625,10.5625 L39.3438,10.5625 L39.3438,11 L35.2656,11 L35.2656,10.5625 M43.5781,2.98438 L44.1406,2.98438 L41.3438,12.0156 L40.7813,12.0156 L43.5781,2.98438 M46.0469,9.64063 L46.0469,13.2813 L45.5625,13.2813 L45.5625,4.98438 L46.0469,4.98438 L46.0469,6.35938 C46.276,5.83854 46.5208,5.47917 46.7813,5.28125 C47.1875,4.98958 47.5729,4.84375 47.9375,4.84375 C48.6458,4.84375 49.237,5.13281 49.7109,5.71094 C50.1849,6.28906 50.4219,7.05208 50.4219,8 C50.4219,8.94792 50.1849,9.71094 49.7109,10.2891 C49.237,10.8672 48.6458,11.1563 47.9375,11.1563 C47.5729,11.1563 47.1875,11.0052 46.7813,10.7031 C46.5208,10.5156 46.276,10.1615 46.0469,9.64063 M49.2813,10.0938 C49.6979,9.67708 49.9063,8.97917 49.9063,8 C49.9063,7.02083 49.6979,6.32292 49.2813,5.90625 C48.8646,5.48958 48.4271,5.28125 47.9688,5.28125 C47.5208,5.28125 47.0885,5.48958 46.6719,5.90625 C46.2656,6.32292 46.0625,7.02083 46.0625,8 C46.0625,8.97917 46.2656,9.67708 46.6719,10.0938 C47.0885,10.5104 47.5208,10.7188 47.9688,10.7188 C48.4271,10.7188 48.8646,10.5104 49.2813,10.0938 M56.1094,6.01563 C55.7552,5.52604 55.2708,5.28125 54.6563,5.28125 C54.0417,5.28125 53.5573,5.52604 53.2031,6.01563 C52.849,6.49479 52.6719,7.15104 52.6719,7.98438 C52.6719,8.83854 52.849,9.51042 53.2031,10 C53.5573,10.4896 54.0417,10.7344 54.6563,10.7344 C55.2708,10.7344 55.7552,10.4896 56.1094,10 C56.4635,9.5 56.6406,8.82813 56.6406,7.98438 C56.6406,7.16146 56.4635,6.50521 56.1094,6.01563 M54.6563,4.84375 C55.4167,4.84375 56.0208,5.13021 56.4688,5.70313 C56.9167,6.27604 57.1406,7.03646 57.1406,7.98438 C57.1406,8.97396 56.9167,9.75521 56.4688,10.3281 C56.0208,10.901 55.4167,11.1875 54.6563,11.1875 C53.875,11.1875 53.2604,10.901 52.8125,10.3281 C52.375,9.75521 52.1563,8.97396 52.1563,7.98438 C52.1563,7.02604 52.3802,6.26302 52.8281,5.69531 C53.276,5.1276 53.8854,4.84375 54.6563,4.84375 M62.6563,5.15625 L62.6563,5.70313 C62.3021,5.50521 62.0833,5.39583 62,5.375 C61.75,5.32292 61.4375,5.29167 61.0625,5.28125 C60.5,5.28125 60.0573,5.39063 59.7344,5.60938 C59.4844,5.79688 59.3594,6.11458 59.3594,6.5625 C59.3594,6.875 59.4792,7.11458 59.7188,7.28125 C59.9583,7.46875 60.3073,7.61458 60.7656,7.71875 L61.1094,7.78125 C61.6823,7.90625 62.1146,8.08333 62.4063,8.3125 C62.75,8.58333 62.9271,8.92708 62.9375,9.34375 C62.9375,9.90625 62.7708,10.349 62.4375,10.6719 C62.0833,10.9948 61.5052,11.1563 60.7031,11.1563 C60.2656,11.1563 59.9323,11.125 59.7031,11.0625 C59.4219,10.9896 59.1302,10.8958 58.8281,10.7813 L58.8281,10.1563 C59.2656,10.4063 59.5469,10.5521 59.6719,10.5938 C60.026,10.6875 60.3802,10.7344 60.7344,10.7344 C61.3073,10.7344 61.7344,10.6146 62.0156,10.375 C62.2969,10.125 62.4375,9.80729 62.4375,9.42188 C62.4375,9.08854 62.3438,8.84896 62.1563,8.70313 C61.8854,8.48438 61.4583,8.30729 60.875,8.17188 L60.5313,8.09375 C60.0208,7.96875 59.6354,7.80208 59.375,7.59375 C59.0417,7.32292 58.875,6.99479 58.875,6.60938 C58.875,5.98438 59.0755,5.53385 59.4766,5.25781 C59.8776,4.98177 60.3698,4.84375 60.9531,4.84375 C61.4531,4.84375 61.7969,4.86979 61.9844,4.92188 C62.2135,4.98438 62.4375,5.0625 62.6563,5.15625 M69.6563,7.75 L69.6563,8.0625 L65.0938,8.0625 C65.0938,9.02083 65.2813,9.69792 65.6563,10.0938 C66.0729,10.5208 66.6875,10.7344 67.5,10.7344 C67.7188,10.7344 68.0052,10.6875 68.3594,10.5938 C68.7135,10.5 69.0677,10.3594 69.4219,10.1719 L69.4219,10.6875 C69.0677,10.8438 68.7057,10.9609 68.3359,11.0391 C67.9661,11.1172 67.6719,11.1563 67.4531,11.1563 C66.526,11.1563 65.8281,10.9063 65.3594,10.4063 C64.849,9.875 64.5938,9.09375 64.5938,8.0625 C64.5938,6.98958 64.8229,6.1875 65.2813,5.65625 C65.7604,5.11458 66.4271,4.84375 67.2813,4.84375 C68.0625,4.84375 68.6563,5.10417 69.0625,5.625 C69.4583,6.16667 69.6563,6.875 69.6563,7.75 M69.1563,7.64063 C69.1563,6.79688 68.9635,6.18229 68.5781,5.79688 C68.2656,5.45313 67.8333,5.28125 67.2813,5.28125 C66.6875,5.28125 66.1875,5.45833 65.7813,5.8125 C65.4063,6.14583 65.1823,6.75521 65.1094,7.64063 L69.1563,7.64063"/>
</g>

<g fill="none" stroke="#000000" stroke-opacity="1" stroke-width="1" stroke-linecap="square" stroke-linejoin="bevel" transform="matrix(2,0,0,2,197.516,85)"
font-family="sans" font-size="11" font-weight="100" font-style="normal" 
>
</g>

<g fill="none" stroke="#000000" stroke-opacity="1" stroke-width="1" stroke-linecap="square" stroke-linejoin="bevel" transform="matrix(2,0,0,2,197.516,85)"
font-family="Ubuntu" font-size="11" font-weight="400" font-style="normal" 
>
</g>

<g fill="none" stroke="#000000" stroke-opacity="1" stroke-width="1" stroke-linecap="square" stroke-linejoin="bevel" transform="matrix(2,0,0,2,0,383)"
font-family="Ubuntu" font-size="11" font-weight="400" font-style="normal" 
>
</g>

<g fill="none" stroke="#000000" stroke-opacity="1" stroke-width="1" stroke-linecap="square" stroke-linejoin="bevel" transform="matrix(2,0,0,2,0,383)"
font-family="Ubuntu" font-size="11" font-weight="400" font-style="normal" 
>
</g>

<g fill="none" stroke="#000000" stroke-opacity="1" stroke-width="1" stroke-linecap="square" stroke-linejoin="bevel" transform="matrix(2,0,0,2,0,383)"
font-family="Ubuntu" font-size="11" font-weight="400" font-style="normal" 
>
</g>

<g fill="none" stroke="#000000" stroke-opacity="1" stroke-width="1" stroke-linecap="square" stroke-linejoin="round" transform="matrix(2,0,0,2,0,383)"
font-family="Ubuntu" font-size="11" font-weight="400" font-style="normal" 
>
<rect x="70.4992" y="-105.5" width="127.002" height="35"/>
</g>

<g fill="none" stroke="#000000" stroke-opacity="1" stroke-width="1" stroke-linecap="square" stroke-linejoin="bevel" transform="matrix(2,0,0,2,0,383)"
font-family="Ubuntu" font-size="11" font-weight="400" font-style="normal" 
>
</g>

<g fill="none" stroke="#000000" stroke-opacity="1" stroke-width="1" stroke-linecap="square" stroke-linejoin="bevel" transform="matrix(2,0,0,2,154.734,193)"
font-family="Ubuntu" font-size="11" font-weight="400" font-style="normal" 
>
</g>

<g fill="none" stroke="#000000" stroke-opacity="1" stroke-width="1" stroke-linecap="square" stroke-linejoin="bevel" transform="matrix(2,0,0,2,154.734,193)"
font-family="sans" font-size="11" font-weight="100" font-style="normal" 
>
</g>

<g fill="#000000" fill-opacity="1" stroke="#000000" stroke-opacity="1" stroke-width="1" stroke-linecap="square" stroke-linejoin="round" transform="matrix(2,0,0,2,154.734,193)"
font-family="sans" font-size="11" font-weight="100" font-style="normal" 
>
<path vector-effect="none" fill-rule="nonzero" d="M2.96875,2.98438 L3.53125,2.98438 L0.734375,12.0156 L0.171875,12.0156 L2.96875,2.98438 M5.46875,3.28125 L5.46875,4.98438 L7.5,4.98438 L7.5,5.40625 L5.46875,5.40625 L5.46875,9.01563 C5.46875,9.47396 5.52604,9.79688 5.64063,9.98438 C5.89063,10.3802 6.25,10.5781 6.71875,10.5781 L7.5,10.5781 L7.5,11 L6.73438,11 C6.24479,11 5.82813,10.8568 5.48438,10.5703 C5.14063,10.2839 4.96875,9.76563 4.96875,9.01563 L4.96875,5.40625 L4.25,5.40625 L4.25,4.98438 L4.96875,4.98438 L4.96875,3.28125 L5.46875,3.28125 M9.20313,8.60938 L9.20313,4.98438 L9.6875,4.98438 L9.6875,8.57813 C9.6875,9.35938 9.8125,9.90885 10.0625,10.2266 C10.3125,10.5443 10.6823,10.7031 11.1719,10.7031 C11.7448,10.7031 12.2344,10.5313 12.6406,10.1875 C13.0469,9.84375 13.25,9.24479 13.25,8.39063 L13.25,4.98438 L13.7344,4.98438 L13.7344,11 L13.25,11 L13.25,9.875 C13.0729,10.2396 12.8385,10.5156 12.5469,10.7031 C12.1302,10.9948 11.6667,11.1406 11.1563,11.1406 C10.5625,11.1406 10.0885,10.9375 9.73438,10.5313 C9.38021,10.1354 9.20313,9.49479 9.20313,8.60938 M19.5,5.40625 C19.4167,5.36458 19.3073,5.33333 19.1719,5.3125 C19.0469,5.29167 18.8958,5.28125 18.7188,5.28125 C18.1042,5.28125 17.599,5.50521 17.2031,5.95313 C16.8802,6.31771 16.7188,6.94271 16.7188,7.82813 L16.7188,11 L16.2344,11 L16.2344,4.98438 L16.7188,4.98438 L16.7188,6.10938 C16.8854,5.78646 17.1146,5.51563 17.4063,5.29688 C17.8021,4.99479 18.2708,4.84375 18.8125,4.84375 C18.9583,4.84375 19.0833,4.84896 19.1875,4.85938 C19.2917,4.85938 19.3958,4.86979 19.5,4.89063 L19.5,5.40625 M21.2656,3.28125 L21.2656,4.98438 L23.2969,4.98438 L23.2969,5.40625 L21.2656,5.40625 L21.2656,9.01563 C21.2656,9.47396 21.3229,9.79688 21.4375,9.98438 C21.6875,10.3802 22.0469,10.5781 22.5156,10.5781 L23.2969,10.5781 L23.2969,11 L22.5313,11 C22.0417,11 21.625,10.8568 21.2813,10.5703 C20.9375,10.2839 20.7656,9.76563 20.7656,9.01563 L20.7656,5.40625 L20.0469,5.40625 L20.0469,4.98438 L20.7656,4.98438 L20.7656,3.28125 L21.2656,3.28125 M25.0625,2.64063 L25.5469,2.64063 L25.5469,11 L25.0625,11 L25.0625,2.64063 M32.7969,7.75 L32.7969,8.0625 L28.2344,8.0625 C28.2344,9.02083 28.4219,9.69792 28.7969,10.0938 C29.2135,10.5208 29.8281,10.7344 30.6406,10.7344 C30.8594,10.7344 31.1458,10.6875 31.5,10.5938 C31.8542,10.5 32.2083,10.3594 32.5625,10.1719 L32.5625,10.6875 C32.2083,10.8438 31.8464,10.9609 31.4766,11.0391 C31.1068,11.1172 30.8125,11.1563 30.5938,11.1563 C29.6667,11.1563 28.9688,10.9063 28.5,10.4063 C27.9896,9.875 27.7344,9.09375 27.7344,8.0625 C27.7344,6.98958 27.9635,6.1875 28.4219,5.65625 C28.901,5.11458 29.5677,4.84375 30.4219,4.84375 C31.2031,4.84375 31.7969,5.10417 32.2031,5.625 C32.599,6.16667 32.7969,6.875 32.7969,7.75 M32.2969,7.64063 C32.2969,6.79688 32.1042,6.18229 31.7188,5.79688 C31.4063,5.45313 30.974,5.28125 30.4219,5.28125 C29.8281,5.28125 29.3281,5.45833 28.9219,5.8125 C28.5469,6.14583 28.3229,6.75521 28.25,7.64063 L32.2969,7.64063 M35.2656,10.5625 L37.0313,10.5625 L37.0313,3.46875 L34.8281,4.35938 L34.8281,3.85938 L37.0156,2.98438 L37.5625,2.98438 L37.5625,10.5625 L39.3438,10.5625 L39.3438,11 L35.2656,11 L35.2656,10.5625 M43.5781,2.98438 L44.1406,2.98438 L41.3438,12.0156 L40.7813,12.0156 L43.5781,2.98438 M49.6719,5.28125 L49.6719,5.79688 C49.3802,5.61979 49.1354,5.5 48.9375,5.4375 C48.6042,5.33333 48.2865,5.28125 47.9844,5.28125 C47.1198,5.28125 46.5,5.5026 46.125,5.94531 C45.75,6.38802 45.5625,7.07292 45.5625,8 C45.5625,8.9375 45.75,9.6276 46.125,10.0703 C46.5,10.513 47.1198,10.7344 47.9844,10.7344 C48.276,10.7344 48.5573,10.6927 48.8281,10.6094 C49.1198,10.5365 49.401,10.4219 49.6719,10.2656 L49.6719,10.7656 C49.401,10.901 49.1198,11 48.8281,11.0625 C48.526,11.125 48.2292,11.1563 47.9375,11.1563 C47.0625,11.1563 46.3646,10.9167 45.8438,10.4375 C45.3229,9.95833 45.0625,9.14323 45.0625,7.99219 C45.0625,6.84115 45.3229,6.02604 45.8438,5.54688 C46.3646,5.07813 47.0625,4.84375 47.9375,4.84375 C48.2292,4.84375 48.5365,4.88542 48.8594,4.96875 C49.1823,5.04167 49.4531,5.14583 49.6719,5.28125 M55.1875,6.01563 C54.8333,5.52604 54.349,5.28125 53.7344,5.28125 C53.1198,5.28125 52.6354,5.52604 52.2813,6.01563 C51.9271,6.49479 51.75,7.15104 51.75,7.98438 C51.75,8.83854 51.9271,9.51042 52.2813,10 C52.6354,10.4896 53.1198,10.7344 53.7344,10.7344 C54.349,10.7344 54.8333,10.4896 55.1875,10 C55.5417,9.5 55.7188,8.82813 55.7188,7.98438 C55.7188,7.16146 55.5417,6.50521 55.1875,6.01563 M53.7344,4.84375 C54.4948,4.84375 55.099,5.13021 55.5469,5.70313 C55.9948,6.27604 56.2188,7.03646 56.2188,7.98438 C56.2188,8.97396 55.9948,9.75521 55.5469,10.3281 C55.099,10.901 54.4948,11.1875 53.7344,11.1875 C52.9531,11.1875 52.3385,10.901 51.8906,10.3281 C51.4531,9.75521 51.2344,8.97396 51.2344,7.98438 C51.2344,7.02604 51.4583,6.26302 51.9063,5.69531 C52.3542,5.1276 52.9635,4.84375 53.7344,4.84375 M58.3281,2.64063 L58.8125,2.64063 L58.8125,11 L58.3281,11 L58.3281,2.64063 M64.9531,6.01563 C64.599,5.52604 64.1146,5.28125 63.5,5.28125 C62.8854,5.28125 62.401,5.52604 62.0469,6.01563 C61.6927,6.49479 61.5156,7.15104 61.5156,7.98438 C61.5156,8.83854 61.6927,9.51042 62.0469,10 C62.401,10.4896 62.8854,10.7344 63.5,10.7344 C64.1146,10.7344 64.599,10.4896 64.9531,10 C65.3073,9.5 65.4844,8.82813 65.4844,7.98438 C65.4844,7.16146 65.3073,6.50521 64.9531,6.01563 M63.5,4.84375 C64.2604,4.84375 64.8646,5.13021 65.3125,5.70313 C65.7604,6.27604 65.9844,7.03646 65.9844,7.98438 C65.9844,8.97396 65.7604,9.75521 65.3125,10.3281 C64.8646,10.901 64.2604,11.1875 63.5,11.1875 C62.7188,11.1875 62.1042,10.901 61.6563,10.3281 C61.2188,9.75521 61,8.97396 61,7.98438 C61,7.02604 61.224,6.26302 61.6719,5.69531 C62.1198,5.1276 62.7292,4.84375 63.5,4.84375 M71.3594,5.40625 C71.276,5.36458 71.1667,5.33333 71.0313,5.3125 C70.9063,5.29167 70.7552,5.28125 70.5781,5.28125 C69.9635,5.28125 69.4583,5.50521 69.0625,5.95313 C68.7396,6.31771 68.5781,6.94271 68.5781,7.82813 L68.5781,11 L68.0938,11 L68.0938,4.98438 L68.5781,4.98438 L68.5781,6.10938 C68.7448,5.78646 68.974,5.51563 69.2656,5.29688 C69.6615,4.99479 70.1302,4.84375 70.6719,4.84375 C70.8177,4.84375 70.9427,4.84896 71.0469,4.85938 C71.151,4.85938 71.2552,4.86979 71.3594,4.89063 L71.3594,5.40625 M76.9688,13.1719 L76.9688,13.5938 L71.25,13.5938 L71.25,13.1719 L76.9688,13.1719 M81.5156,5.15625 L81.5156,5.70313 C81.1615,5.50521 80.9427,5.39583 80.8594,5.375 C80.6094,5.32292 80.2969,5.29167 79.9219,5.28125 C79.3594,5.28125 78.9167,5.39063 78.5938,5.60938 C78.3438,5.79688 78.2188,6.11458 78.2188,6.5625 C78.2188,6.875 78.3385,7.11458 78.5781,7.28125 C78.8177,7.46875 79.1667,7.61458 79.625,7.71875 L79.9688,7.78125 C80.5417,7.90625 80.974,8.08333 81.2656,8.3125 C81.6094,8.58333 81.7865,8.92708 81.7969,9.34375 C81.7969,9.90625 81.6302,10.349 81.2969,10.6719 C80.9427,10.9948 80.3646,11.1563 79.5625,11.1563 C79.125,11.1563 78.7917,11.125 78.5625,11.0625 C78.2813,10.9896 77.9896,10.8958 77.6875,10.7813 L77.6875,10.1563 C78.125,10.4063 78.4063,10.5521 78.5313,10.5938 C78.8854,10.6875 79.2396,10.7344 79.5938,10.7344 C80.1667,10.7344 80.5938,10.6146 80.875,10.375 C81.1563,10.125 81.2969,9.80729 81.2969,9.42188 C81.2969,9.08854 81.2031,8.84896 81.0156,8.70313 C80.7448,8.48438 80.3177,8.30729 79.7344,8.17188 L79.3906,8.09375 C78.8802,7.96875 78.4948,7.80208 78.2344,7.59375 C77.901,7.32292 77.7344,6.99479 77.7344,6.60938 C77.7344,5.98438 77.9349,5.53385 78.3359,5.25781 C78.737,4.98177 79.2292,4.84375 79.8125,4.84375 C80.3125,4.84375 80.6563,4.86979 80.8438,4.92188 C81.0729,4.98438 81.2969,5.0625 81.5156,5.15625 M88.5156,7.75 L88.5156,8.0625 L83.9531,8.0625 C83.9531,9.02083 84.1406,9.69792 84.5156,10.0938 C84.9323,10.5208 85.5469,10.7344 86.3594,10.7344 C86.5781,10.7344 86.8646,10.6875 87.2188,10.5938 C87.5729,10.5 87.9271,10.3594 88.2813,10.1719 L88.2813,10.6875 C87.9271,10.8438 87.5651,10.9609 87.1953,11.0391 C86.8255,11.1172 86.5313,11.1563 86.3125,11.1563 C85.3854,11.1563 84.6875,10.9063 84.2188,10.4063 C83.7083,9.875 83.4531,9.09375 83.4531,8.0625 C83.4531,6.98958 83.6823,6.1875 84.1406,5.65625 C84.6198,5.11458 85.2865,4.84375 86.1406,4.84375 C86.9219,4.84375 87.5156,5.10417 87.9219,5.625 C88.3177,6.16667 88.5156,6.875 88.5156,7.75 M88.0156,7.64063 C88.0156,6.79688 87.8229,6.18229 87.4375,5.79688 C87.125,5.45313 86.6927,5.28125 86.1406,5.28125 C85.5469,5.28125 85.0469,5.45833 84.6406,5.8125 C84.2656,6.14583 84.0417,6.75521 83.9688,7.64063 L88.0156,7.64063 M95.1406,7.375 L95.1406,11 L94.6406,11 L94.6406,7.40625 C94.6406,6.625 94.5156,6.07552 94.2656,5.75781 C94.0156,5.4401 93.6458,5.28125 93.1563,5.28125 C92.5833,5.28125 92.099,5.45313 91.7031,5.79688 C91.2865,6.14063 91.0781,6.73958 91.0781,7.59375 L91.0781,11 L90.5938,11 L90.5938,4.98438 L91.0781,4.98438 L91.0781,6.10938 C91.2552,5.74479 91.4896,5.46875 91.7813,5.28125 C92.1979,4.98958 92.6615,4.84375 93.1719,4.84375 C93.776,4.84375 94.2552,5.04688 94.6094,5.45313 C94.9635,5.84896 95.1406,6.48958 95.1406,7.375 M100.969,5.15625 L100.969,5.70313 C100.615,5.50521 100.396,5.39583 100.313,5.375 C100.063,5.32292 99.75,5.29167 99.375,5.28125 C98.8125,5.28125 98.3698,5.39063 98.0469,5.60938 C97.7969,5.79688 97.6719,6.11458 97.6719,6.5625 C97.6719,6.875 97.7917,7.11458 98.0313,7.28125 C98.2708,7.46875 98.6198,7.61458 99.0781,7.71875 L99.4219,7.78125 C99.9948,7.90625 100.427,8.08333 100.719,8.3125 C101.063,8.58333 101.24,8.92708 101.25,9.34375 C101.25,9.90625 101.083,10.349 100.75,10.6719 C100.396,10.9948 99.8177,11.1563 99.0156,11.1563 C98.5781,11.1563 98.2448,11.125 98.0156,11.0625 C97.7344,10.9896 97.4427,10.8958 97.1406,10.7813 L97.1406,10.1563 C97.5781,10.4063 97.8594,10.5521 97.9844,10.5938 C98.3385,10.6875 98.6927,10.7344 99.0469,10.7344 C99.6198,10.7344 100.047,10.6146 100.328,10.375 C100.609,10.125 100.75,9.80729 100.75,9.42188 C100.75,9.08854 100.656,8.84896 100.469,8.70313 C100.198,8.48438 99.7708,8.30729 99.1875,8.17188 L98.8438,8.09375 C98.3333,7.96875 97.9479,7.80208 97.6875,7.59375 C97.3542,7.32292 97.1875,6.99479 97.1875,6.60938 C97.1875,5.98438 97.388,5.53385 97.7891,5.25781 C98.1901,4.98177 98.6823,4.84375 99.2656,4.84375 C99.7656,4.84375 100.109,4.86979 100.297,4.92188 C100.526,4.98438 100.75,5.0625 100.969,5.15625 M106.859,6.01563 C106.505,5.52604 106.021,5.28125 105.406,5.28125 C104.792,5.28125 104.307,5.52604 103.953,6.01563 C103.599,6.49479 103.422,7.15104 103.422,7.98438 C103.422,8.83854 103.599,9.51042 103.953,10 C104.307,10.4896 104.792,10.7344 105.406,10.7344 C106.021,10.7344 106.505,10.4896 106.859,10 C107.214,9.5 107.391,8.82813 107.391,7.98438 C107.391,7.16146 107.214,6.50521 106.859,6.01563 M105.406,4.84375 C106.167,4.84375 106.771,5.13021 107.219,5.70313 C107.667,6.27604 107.891,7.03646 107.891,7.98438 C107.891,8.97396 107.667,9.75521 107.219,10.3281 C106.771,10.901 106.167,11.1875 105.406,11.1875 C104.625,11.1875 104.01,10.901 103.563,10.3281 C103.125,9.75521 102.906,8.97396 102.906,7.98438 C102.906,7.02604 103.13,6.26302 103.578,5.69531 C104.026,5.1276 104.635,4.84375 105.406,4.84375 M113.266,5.40625 C113.182,5.36458 113.073,5.33333 112.938,5.3125 C112.813,5.29167 112.661,5.28125 112.484,5.28125 C111.87,5.28125 111.365,5.50521 110.969,5.95313 C110.646,6.31771 110.484,6.94271 110.484,7.82813 L110.484,11 L110,11 L110,4.98438 L110.484,4.98438 L110.484,6.10938 C110.651,5.78646 110.88,5.51563 111.172,5.29688 C111.568,4.99479 112.036,4.84375 112.578,4.84375 C112.724,4.84375 112.849,4.84896 112.953,4.85938 C113.057,4.85938 113.161,4.86979 113.266,4.89063 L113.266,5.40625"/>
</g>

<g fill="none" stroke="#000000" stroke-opacity="1" stroke-width="1" stroke-linecap="square" stroke-linejoin="bevel" transform="matrix(2,0,0,2,154.734,193)"
font-family="sans" font-size="11" font-weight="100" font-style="normal" 
>
</g>

<g fill="none" stroke="#000000" stroke-opacity="1" stroke-width="1" stroke-linecap="square" stroke-linejoin="bevel" transform="matrix(2,0,0,2,154.734,193)"
font-family="Ubuntu" font-size="11" font-weight="400" font-style="normal" 
>
</g>

<g fill="none" stroke="#000000" stroke-opacity="1" stroke-width="1" stroke-linecap="square" stroke-linejoin="bevel" transform="matrix(2,0,0,2,0,383)"
font-family="Ubuntu" font-size="11" font-weight="400" font-style="normal" 
>
</g>

<g fill="none" stroke="#000000" stroke-opacity="1" stroke-width="1" stroke-linecap="square" stroke-linejoin="bevel" transform="matrix(2,0,0,2,0,383)"
font-family="Ubuntu" font-size="11" font-weight="400" font-style="normal" 
>
</g>

<g fill="none" stroke="#000000" stroke-opacity="1" stroke-width="1" stroke-linecap="square" stroke-linejoin="bevel" transform="matrix(2,0,0,2,0,383)"
font-family="Ubuntu" font-size="11" font-weight="400" font-style="normal" 
>
</g>

<g fill="none" stroke="#000000" stroke-opacity="1" stroke-width="1" stroke-linecap="square" stroke-linejoin="round" transform="matrix(2,0,0,2,0,383)"
font-family="Ubuntu" font-size="11" font-weight="400" font-style="normal" 
>
<ellipse cx="27" cy="-88" rx="26.5" ry="17.5"/>
</g>

<g fill="none" stroke="#000000" stroke-opacity="1" stroke-width="1" stroke-linecap="square" stroke-linejoin="bevel" transform="matrix(2,0,0,2,0,383)"
font-family="Ubuntu" font-size="11" font-weight="400" font-style="normal" 
>
</g>

<g fill="none" stroke="#000000" stroke-opacity="1" stroke-width="1" stroke-linecap="square" stroke-linejoin="bevel" transform="matrix(2,0,0,2,30.8281,193)"
font-family="Ubuntu" font-size="11" font-weight="400" font-style="normal" 
>
</g>

<g fill="none" stroke="#000000" stroke-opacity="1" stroke-width="1" stroke-linecap="square" stroke-linejoin="bevel" transform="matrix(2,0,0,2,30.8281,193)"
font-family="sans" font-size="11" font-weight="100" font-style="normal" 
>
</g>

<g fill="#000000" fill-opacity="1" stroke="#000000" stroke-opacity="1" stroke-width="1" stroke-linecap="square" stroke-linejoin="round" transform="matrix(2,0,0,2,30.8281,193)"
font-family="sans" font-size="11" font-weight="100" font-style="normal" 
>
<path vector-effect="none" fill-rule="nonzero" d="M2.96875,2.98438 L3.53125,2.98438 L0.734375,12.0156 L0.171875,12.0156 L2.96875,2.98438 M8.35938,5.15625 L8.35938,5.70313 C8.00521,5.50521 7.78646,5.39583 7.70313,5.375 C7.45313,5.32292 7.14063,5.29167 6.76563,5.28125 C6.20313,5.28125 5.76042,5.39063 5.4375,5.60938 C5.1875,5.79688 5.0625,6.11458 5.0625,6.5625 C5.0625,6.875 5.18229,7.11458 5.42188,7.28125 C5.66146,7.46875 6.01042,7.61458 6.46875,7.71875 L6.8125,7.78125 C7.38542,7.90625 7.81771,8.08333 8.10938,8.3125 C8.45313,8.58333 8.63021,8.92708 8.64063,9.34375 C8.64063,9.90625 8.47396,10.349 8.14063,10.6719 C7.78646,10.9948 7.20833,11.1563 6.40625,11.1563 C5.96875,11.1563 5.63542,11.125 5.40625,11.0625 C5.125,10.9896 4.83333,10.8958 4.53125,10.7813 L4.53125,10.1563 C4.96875,10.4063 5.25,10.5521 5.375,10.5938 C5.72917,10.6875 6.08333,10.7344 6.4375,10.7344 C7.01042,10.7344 7.4375,10.6146 7.71875,10.375 C8,10.125 8.14063,9.80729 8.14063,9.42188 C8.14063,9.08854 8.04688,8.84896 7.85938,8.70313 C7.58854,8.48438 7.16146,8.30729 6.57813,8.17188 L6.23438,8.09375 C5.72396,7.96875 5.33854,7.80208 5.07813,7.59375 C4.74479,7.32292 4.57813,6.99479 4.57813,6.60938 C4.57813,5.98438 4.77865,5.53385 5.17969,5.25781 C5.58073,4.98177 6.07292,4.84375 6.65625,4.84375 C7.15625,4.84375 7.5,4.86979 7.6875,4.92188 C7.91667,4.98438 8.14063,5.0625 8.35938,5.15625 M10.6563,4.98438 L11.1563,4.98438 L11.1563,11 L10.6563,11 L10.6563,4.98438 M10.6563,2.64063 L11.1563,2.64063 L11.1563,3.3125 L10.6563,3.3125 L10.6563,2.64063 M18.0469,6.29688 C18.2344,5.80729 18.526,5.44271 18.9219,5.20313 C19.3073,4.96354 19.7604,4.84375 20.2813,4.84375 C20.8021,4.84375 21.2188,5.02604 21.5313,5.39063 C21.8542,5.75521 22.0156,6.41667 22.0156,7.375 L22.0156,11 L21.5313,11 L21.5313,7.40625 C21.5313,6.57292 21.4167,6.01042 21.1875,5.71875 C20.9583,5.42708 20.651,5.28125 20.2656,5.28125 C19.7135,5.28125 19.2292,5.44792 18.8125,5.78125 C18.3438,6.15625 18.1094,6.76042 18.1094,7.59375 L18.1094,11 L17.625,11 L17.625,7.40625 C17.625,6.60417 17.513,6.04948 17.2891,5.74219 C17.0651,5.4349 16.7552,5.28125 16.3594,5.28125 C15.8073,5.28125 15.3229,5.45313 14.9063,5.79688 C14.4375,6.16146 14.2031,6.76042 14.2031,7.59375 L14.2031,11 L13.7188,11 L13.7188,4.98438 L14.2031,4.98438 L14.2031,6.10938 C14.3802,5.71354 14.6563,5.40104 15.0313,5.17188 C15.3958,4.95313 15.849,4.84375 16.3906,4.84375 C16.7448,4.84375 17.0833,4.95833 17.4063,5.1875 C17.6563,5.375 17.8698,5.74479 18.0469,6.29688 "/>
</g>

<g fill="none" stroke="#000000" stroke-opacity="1" stroke-width="1" stroke-linecap="square" stroke-linejoin="bevel" transform="matrix(2,0,0,2,30.8281,193)"
font-family="sans" font-size="11" font-weight="100" font-style="normal" 
>
</g>

<g fill="none" stroke="#000000" stroke-opacity="1" stroke-width="1" stroke-linecap="square" stroke-linejoin="bevel" transform="matrix(2,0,0,2,30.8281,193)"
font-family="Ubuntu" font-size="11" font-weight="400" font-style="normal" 
>
</g>

<g fill="none" stroke="#000000" stroke-opacity="1" stroke-width="1" stroke-linecap="square" stroke-linejoin="bevel" transform="matrix(2,0,0,2,0,383)"
font-family="Ubuntu" font-size="11" font-weight="400" font-style="normal" 
>
</g>

<g fill="none" stroke="#000000" stroke-opacity="1" stroke-width="1" stroke-linecap="square" stroke-linejoin="bevel" transform="matrix(2,0,0,2,0,383)"
font-family="Ubuntu" font-size="11" font-weight="400" font-style="normal" 
>
</g>

<g fill="none" stroke="#000000" stroke-opacity="1" stroke-width="1" stroke-linecap="square" stroke-linejoin="bevel" transform="matrix(2,0,0,2,0,383)"
font-family="Ubuntu" font-size="11" font-weight="400" font-style="normal" 
>
</g>

<g fill="none" stroke="#000000" stroke-opacity="1" stroke-width="1" stroke-linecap="square" stroke-linejoin="round" transform="matrix(2,0,0,2,0,383)"
font-family="Ubuntu" font-size="11" font-weight="400" font-style="normal" 
>
<ellipse cx="27" cy="-34" rx="26.5" ry="17.5"/>
</g>

<g fill="none" stroke="#000000" stroke-opacity="1" stroke-width="1" stroke-linecap="square" stroke-linejoin="bevel" transform="matrix(2,0,0,2,0,383)"
font-family="Ubuntu" font-size="11" font-weight="400" font-style="normal" 
>
</g>

<g fill="none" stroke="#000000" stroke-opacity="1" stroke-width="1" stroke-linecap="square" stroke-linejoin="bevel" transform="matrix(2,0,0,2,36.6094,301)"
font-family="Ubuntu" font-size="11" font-weight="400" font-style="normal" 
>
</g>

<g fill="none" stroke="#000000" stroke-opacity="1" stroke-width="1" stroke-linecap="square" stroke-linejoin="bevel" transform="matrix(2,0,0,2,36.6094,301)"
font-family="sans" font-size="11" font-weight="100" font-style="normal" 
>
</g>

<g fill="#000000" fill-opacity="1" stroke="#000000" stroke-opacity="1" stroke-width="1" stroke-linecap="square" stroke-linejoin="round" transform="matrix(2,0,0,2,36.6094,301)"
font-family="sans" font-size="11" font-weight="100" font-style="normal" 
>
<path vector-effect="none" fill-rule="nonzero" d="M2.96875,2.98438 L3.53125,2.98438 L0.734375,12.0156 L0.171875,12.0156 L2.96875,2.98438 M8.53125,6.01563 C8.17708,5.52604 7.69271,5.28125 7.07813,5.28125 C6.46354,5.28125 5.97917,5.52604 5.625,6.01563 C5.27083,6.49479 5.09375,7.15104 5.09375,7.98438 C5.09375,8.83854 5.27083,9.51042 5.625,10 C5.97917,10.4896 6.46354,10.7344 7.07813,10.7344 C7.69271,10.7344 8.17708,10.4896 8.53125,10 C8.88542,9.5 9.0625,8.82813 9.0625,7.98438 C9.0625,7.16146 8.88542,6.50521 8.53125,6.01563 M7.07813,4.84375 C7.83854,4.84375 8.44271,5.13021 8.89063,5.70313 C9.33854,6.27604 9.5625,7.03646 9.5625,7.98438 C9.5625,8.97396 9.33854,9.75521 8.89063,10.3281 C8.44271,10.901 7.83854,11.1875 7.07813,11.1875 C6.29688,11.1875 5.68229,10.901 5.23438,10.3281 C4.79688,9.75521 4.57813,8.97396 4.57813,7.98438 C4.57813,7.02604 4.80208,6.26302 5.25,5.69531 C5.69792,5.1276 6.30729,4.84375 7.07813,4.84375 M12.1563,9.64063 L12.1563,13.2813 L11.6719,13.2813 L11.6719,4.98438 L12.1563,4.98438 L12.1563,6.35938 C12.3854,5.83854 12.6302,5.47917 12.8906,5.28125 C13.2969,4.98958 13.6823,4.84375 14.0469,4.84375 C14.7552,4.84375 15.3464,5.13281 15.8203,5.71094 C16.2943,6.28906 16.5313,7.05208 16.5313,8 C16.5313,8.94792 16.2943,9.71094 15.8203,10.2891 C15.3464,10.8672 14.7552,11.1563 14.0469,11.1563 C13.6823,11.1563 13.2969,11.0052 12.8906,10.7031 C12.6302,10.5156 12.3854,10.1615 12.1563,9.64063 M15.3906,10.0938 C15.8073,9.67708 16.0156,8.97917 16.0156,8 C16.0156,7.02083 15.8073,6.32292 15.3906,5.90625 C14.974,5.48958 14.5365,5.28125 14.0781,5.28125 C13.6302,5.28125 13.1979,5.48958 12.7813,5.90625 C12.375,6.32292 12.1719,7.02083 12.1719,8 C12.1719,8.97917 12.375,9.67708 12.7813,10.0938 C13.1979,10.5104 13.6302,10.7188 14.0781,10.7188 C14.5365,10.7188 14.974,10.5104 15.3906,10.0938 "/>
</g>

<g fill="none" stroke="#000000" stroke-opacity="1" stroke-width="1" stroke-linecap="square" stroke-linejoin="bevel" transform="matrix(2,0,0,2,36.6094,301)"
font-family="sans" font-size="11" font-weight="100" font-style="normal" 
>
</g>

<g fill="none" stroke="#000000" stroke-opacity="1" stroke-width="1" stroke-linecap="square" stroke-linejoin="bevel" transform="matrix(2,0,0,2,36.6094,301)"
font-family="Ubuntu" font-size="11" font-weight="400" font-style="normal" 
>
</g>

<g fill="none" stroke="#000000" stroke-opacity="1" stroke-width="1" stroke-linecap="square" stroke-linejoin="bevel" transform="matrix(2,0,0,2,0,383)"
font-family="Ubuntu" font-size="11" font-weight="400" font-style="normal" 
>
</g>

<g fill="none" stroke="#000000" stroke-opacity="1" stroke-width="1" stroke-linecap="square" stroke-linejoin="bevel" transform="matrix(2,0,0,2,0,383)"
font-family="Ubuntu" font-size="11" font-weight="400" font-style="normal" 
>
</g>

<g fill="none" stroke="#000000" stroke-opacity="1" stroke-width="1" stroke-linecap="square" stroke-linejoin="bevel" transform="matrix(2,0,0,2,0,383)"
font-family="Ubuntu" font-size="11" font-weight="400" font-style="normal" 
>
</g>

<g fill="none" stroke="#000000" stroke-opacity="1" stroke-width="1" stroke-linecap="square" stroke-linejoin="round" transform="matrix(2,0,0,2,0,383)"
font-family="Ubuntu" font-size="11" font-weight="400" font-style="normal" 
>
<path vector-effect="none" fill-rule="evenodd" d="M43.736,-102.54 C49.304,-106.92 55.697,-111.49 62,-115 C68.416,-118.57 75.398,-121.85 82.407,-124.81 "/>
</g>

<g fill="none" stroke="#000000" stroke-opacity="1" stroke-width="1" stroke-linecap="square" stroke-linejoin="bevel" transform="matrix(2,0,0,2,0,383)"
font-family="Ubuntu" font-size="11" font-weight="400" font-style="normal" 
>
</g>

<g fill="none" stroke="#000000" stroke-opacity="1" stroke-width="1" stroke-linecap="square" stroke-linejoin="bevel" transform="matrix(2,0,0,2,0,383)"
font-family="Ubuntu" font-size="11" font-weight="400" font-style="normal" 
>
</g>

<g fill="#000000" fill-opacity="1" stroke="#000000" stroke-opacity="1" stroke-width="1" stroke-linecap="square" stroke-linejoin="round" transform="matrix(2,0,0,2,0,383)"
font-family="Ubuntu" font-size="11" font-weight="400" font-style="normal" 
>
<path vector-effect="none" fill-rule="evenodd" d="M82.407,-124.81 L83.744,-121.477 L91.931,-128.63 L81.07,-128.143 L82.407,-124.81"/>
</g>

<g fill="none" stroke="#000000" stroke-opacity="1" stroke-width="1" stroke-linecap="square" stroke-linejoin="bevel" transform="matrix(2,0,0,2,0,383)"
font-family="Ubuntu" font-size="11" font-weight="400" font-style="normal" 
>
</g>

<g fill="none" stroke="#000000" stroke-opacity="1" stroke-width="1" stroke-linecap="square" stroke-linejoin="bevel" transform="matrix(2,0,0,2,0,383)"
font-family="Ubuntu" font-size="11" font-weight="400" font-style="normal" 
>
</g>

<g fill="none" stroke="#000000" stroke-opacity="1" stroke-width="1" stroke-linecap="square" stroke-linejoin="bevel" transform="matrix(2,0,0,2,0,383)"
font-family="Ubuntu" font-size="11" font-weight="400" font-style="normal" 
>
</g>

<g fill="none" stroke="#000000" stroke-opacity="1" stroke-width="1" stroke-linecap="square" stroke-linejoin="bevel" transform="matrix(2,0,0,2,0,383)"
font-family="Ubuntu" font-size="11" font-weight="400" font-style="normal" 
>
</g>

<g fill="none" stroke="#000000" stroke-opacity="1" stroke-width="1" stroke-linecap="square" stroke-linejoin="round" transform="matrix(2,0,0,2,0,383)"
font-family="Ubuntu" font-size="11" font-weight="400" font-style="normal" 
>
<path vector-effect="none" fill-rule="evenodd" d="M54.001,-88 C55.858,-88 57.772,-88 59.73,-88 "/>
</g>

<g fill="none" stroke="#000000" stroke-opacity="1" stroke-width="1" stroke-linecap="square" stroke-linejoin="bevel" transform="matrix(2,0,0,2,0,383)"
font-family="Ubuntu" font-size="11" font-weight="400" font-style="normal" 
>
</g>

<g fill="none" stroke="#000000" stroke-opacity="1" stroke-width="1" stroke-linecap="square" stroke-linejoin="bevel" transform="matrix(2,0,0,2,0,383)"
font-family="Ubuntu" font-size="11" font-weight="400" font-style="normal" 
>
</g>

<g fill="#000000" fill-opacity="1" stroke="#000000" stroke-opacity="1" stroke-width="1" stroke-linecap="square" stroke-linejoin="round" transform="matrix(2,0,0,2,0,383)"
font-family="Ubuntu" font-size="11" font-weight="400" font-style="normal" 
>
<path vector-effect="none" fill-rule="evenodd" d="M59.73,-88 L59.73,-84.466 L69.827,-88 L59.73,-91.534 L59.73,-88"/>
</g>

<g fill="none" stroke="#000000" stroke-opacity="1" stroke-width="1" stroke-linecap="square" stroke-linejoin="bevel" transform="matrix(2,0,0,2,0,383)"
font-family="Ubuntu" font-size="11" font-weight="400" font-style="normal" 
>
</g>

<g fill="none" stroke="#000000" stroke-opacity="1" stroke-width="1" stroke-linecap="square" stroke-linejoin="bevel" transform="matrix(2,0,0,2,0,383)"
font-family="Ubuntu" font-size="11" font-weight="400" font-style="normal" 
>
</g>

<g fill="none" stroke="#000000" stroke-opacity="1" stroke-width="1" stroke-linecap="square" stroke-linejoin="bevel" transform="matrix(2,0,0,2,0,383)"
font-family="Ubuntu" font-size="11" font-weight="400" font-style="normal" 
>
</g>

<g fill="none" stroke="#000000" stroke-opacity="1" stroke-width="1" stroke-linecap="square" stroke-linejoin="bevel" transform="matrix(2,0,0,2,0,383)"
font-family="Ubuntu" font-size="11" font-weight="400" font-style="normal" 
>
</g>

<g fill="none" stroke="#000000" stroke-opacity="1" stroke-width="1" stroke-linecap="square" stroke-linejoin="round" transform="matrix(2,0,0,2,0,383)"
font-family="Ubuntu" font-size="11" font-weight="400" font-style="normal" 
>
<path vector-effect="none" fill-rule="evenodd" d="M80.497,-52.006 C74.133,-54.745 67.832,-57.754 62,-61 C58.651,-62.864 55.277,-65.028 52.015,-67.304 "/>
</g>

<g fill="none" stroke="#000000" stroke-opacity="1" stroke-width="1" stroke-linecap="square" stroke-linejoin="bevel" transform="matrix(2,0,0,2,0,383)"
font-family="Ubuntu" font-size="11" font-weight="400" font-style="normal" 
>
</g>

<g fill="none" stroke="#000000" stroke-opacity="1" stroke-width="1" stroke-linecap="square" stroke-linejoin="bevel" transform="matrix(2,0,0,2,0,383)"
font-family="Ubuntu" font-size="11" font-weight="400" font-style="normal" 
>
</g>

<g fill="#000000" fill-opacity="1" stroke="#000000" stroke-opacity="1" stroke-width="1" stroke-linecap="square" stroke-linejoin="round" transform="matrix(2,0,0,2,0,383)"
font-family="Ubuntu" font-size="11" font-weight="400" font-style="normal" 
>
<path vector-effect="none" fill-rule="evenodd" d="M52.015,-67.304 L54.1706,-70.2017 L43.736,-73.463 L49.8594,-64.4064 L52.015,-67.304"/>
</g>

<g fill="none" stroke="#000000" stroke-opacity="1" stroke-width="1" stroke-linecap="square" stroke-linejoin="bevel" transform="matrix(2,0,0,2,0,383)"
font-family="Ubuntu" font-size="11" font-weight="400" font-style="normal" 
>
</g>

<g fill="none" stroke="#000000" stroke-opacity="1" stroke-width="1" stroke-linecap="square" stroke-linejoin="bevel" transform="matrix(2,0,0,2,0,383)"
font-family="Ubuntu" font-size="11" font-weight="400" font-style="normal" 
>
</g>

<g fill="none" stroke="#000000" stroke-opacity="1" stroke-width="1" stroke-linecap="square" stroke-linejoin="bevel" transform="matrix(2,0,0,2,0,383)"
font-family="Ubuntu" font-size="11" font-weight="400" font-style="normal" 
>
</g>

<g fill="none" stroke="#000000" stroke-opacity="1" stroke-width="1" stroke-linecap="square" stroke-linejoin="bevel" transform="matrix(2,0,0,2,0,383)"
font-family="Ubuntu" font-size="11" font-weight="400" font-style="normal" 
>
</g>

<g fill="none" stroke="#000000" stroke-opacity="1" stroke-width="1" stroke-linecap="square" stroke-linejoin="round" transform="matrix(2,0,0,2,0,383)"
font-family="Ubuntu" font-size="11" font-weight="400" font-style="normal" 
>
<path vector-effect="none" fill-rule="evenodd" d="M54.001,-34 C59.031,-34 64.479,-34 70.086,-34 "/>
</g>

<g fill="none" stroke="#000000" stroke-opacity="1" stroke-width="1" stroke-linecap="square" stroke-linejoin="bevel" transform="matrix(2,0,0,2,0,383)"
font-family="Ubuntu" font-size="11" font-weight="400" font-style="normal" 
>
</g>

<g fill="none" stroke="#000000" stroke-opacity="1" stroke-width="1" stroke-linecap="square" stroke-linejoin="bevel" transform="matrix(2,0,0,2,0,383)"
font-family="Ubuntu" font-size="11" font-weight="400" font-style="normal" 
>
</g>

<g fill="#000000" fill-opacity="1" stroke="#000000" stroke-opacity="1" stroke-width="1" stroke-linecap="square" stroke-linejoin="round" transform="matrix(2,0,0,2,0,383)"
font-family="Ubuntu" font-size="11" font-weight="400" font-style="normal" 
>
<path vector-effect="none" fill-rule="evenodd" d="M70.086,-34 L70.086,-30.4272 L80.294,-34 L70.086,-37.5728 L70.086,-34"/>
</g>

<g fill="none" stroke="#000000" stroke-opacity="1" stroke-width="1" stroke-linecap="square" stroke-linejoin="bevel" transform="matrix(2,0,0,2,0,383)"
font-family="Ubuntu" font-size="11" font-weight="400" font-style="normal" 
>
</g>

<g fill="none" stroke="#000000" stroke-opacity="1" stroke-width="1" stroke-linecap="square" stroke-linejoin="bevel" transform="matrix(1,0,0,1,0,0)"
font-family="Ubuntu" font-size="11" font-weight="400" font-style="normal" 
>
</g>
</g>
</svg>
